<svg width="490" height="475" viewBox="0 0 490 475" fill="none" xmlns="http://www.w3.org/2000/svg">
<mask id="mask0_916_24282" style="mask-type:luminance" maskUnits="userSpaceOnUse" x="10" y="0" width="480" height="465">
<path d="M490.001 0.277344H10.2266V464.78H490.001V0.277344Z" fill="white"/>
</mask>
<g mask="url(#mask0_916_24282)">
<path d="M248.47 248.027L233.39 257.393L219.541 251.003L248.47 248.027Z" fill="#C795E3" stroke="black" stroke-width="0.856164" stroke-linecap="round" stroke-linejoin="round"/>
<path d="M232.934 272.68L233.393 257.393L248.473 248.027L232.934 272.68Z" fill="#E3CAF1" stroke="black" stroke-width="0.856164" stroke-linecap="round" stroke-linejoin="round"/>
<path d="M232.93 272.688L219.541 251.012L233.39 257.402L232.93 272.688Z" fill="#C795E3" stroke="#091A23" stroke-width="0.856164" stroke-linecap="round" stroke-linejoin="round"/>
<path d="M232.93 272.688L219.541 251.012L233.39 257.402L232.93 272.688Z" fill="#4C4C4C" stroke="black" stroke-width="0.856164" stroke-linecap="round" stroke-linejoin="round"/>
<path d="M230.324 259.848L-352.824 598.18C-371.39 608.88 -382.828 628.703 -382.828 650.165C-382.828 681.273 -349.181 700.681 -322.352 685.042L44.2981 471.396C63.2886 460.324 87.1117 474.068 87.1117 496.085C87.1117 517.132 76.9367 536.731 60.0598 548.836M257.122 317.324L-84.5352 514.31M346.167 330.66L-22.8047 545.932" stroke="#808080" stroke-width="0.856164" stroke-linecap="round" stroke-linejoin="round" stroke-dasharray="3.42 3.42"/>
<path d="M-54.7188 387.582V426.424L149.339 544.218L148.263 505.874L-54.7188 387.582Z" fill="#4C4C4C" stroke="black" stroke-width="0.856164" stroke-linecap="round" stroke-linejoin="round"/>
<path d="M284.416 427.098V466.23L149.694 544.215L148.617 505.977L284.416 427.098Z" fill="#4C4C4C" stroke="black" stroke-width="0.856164" stroke-linecap="round" stroke-linejoin="round"/>
<path d="M-54.7188 387.93L81.4847 308.551L284.419 427.1L148.56 506.141L-54.7188 387.93Z" fill="black" stroke="black" stroke-width="0.856164" stroke-linecap="round" stroke-linejoin="round"/>
<path d="M-54.7188 363.519L81.4847 284.137L284.419 402.691L148.56 481.727L-54.7188 363.519Z" fill="#4C4C4C" stroke="black" stroke-width="0.856164" stroke-linecap="round" stroke-linejoin="round"/>
<path d="M50.8438 325.199L216.82 421.48" stroke="black" stroke-width="0.856164" stroke-linecap="round" stroke-linejoin="round"/>
<path d="M27.8477 338.855L193.824 435.136" stroke="black" stroke-width="0.856164" stroke-linecap="round" stroke-linejoin="round"/>
</g>
<path d="M134.334 410.699C100.987 410.699 75.8379 396.802 75.8379 378.379C75.8379 359.956 100.987 346.059 134.334 346.059C167.68 346.059 192.829 359.956 192.829 378.379C192.829 396.802 167.68 410.699 134.334 410.699Z" fill="black" stroke="black" stroke-width="0.856164" stroke-linecap="round" stroke-linejoin="round"/>
<path d="M134.333 403.289C106.987 403.289 86.373 392.581 86.373 378.375C86.373 364.17 106.995 353.462 134.333 353.462C161.68 353.462 182.294 364.17 182.294 378.375C182.294 392.581 161.672 403.289 134.333 403.289Z" fill="#B2B2B2" stroke="black" stroke-width="0.856164" stroke-linecap="round" stroke-linejoin="round"/>
<path d="M192.829 378.376C192.829 396.799 167.68 410.696 134.334 410.696C100.987 410.696 75.8379 396.799 75.8379 378.376V406.243C75.8379 424.665 100.987 438.563 134.334 438.563C167.68 438.563 192.829 424.665 192.829 406.243V378.376Z" fill="#191919" stroke="black" stroke-width="0.856164" stroke-linecap="round" stroke-linejoin="round"/>
<path d="M133.979 397.465C112.956 397.465 95.578 391.677 87.0898 382.841C90.9166 394.765 109.94 403.293 134.334 403.293C158.727 403.293 178.948 394.22 181.893 381.712C173.837 391.18 155.885 397.465 133.979 397.465Z" fill="#4C4C4C"/>
<path d="M64.6004 440.082C64.6004 443.92 61.498 445.143 57.6713 442.814C53.8445 440.485 50.7422 435.486 50.7422 431.648C50.7422 427.811 53.8445 426.587 57.6713 428.916C61.498 431.246 64.6004 436.244 64.6004 440.082Z" fill="#E8EBEC" stroke="#091A23" stroke-width="0.856164" stroke-linecap="round" stroke-linejoin="round"/>
<path d="M96.5233 421.612C96.5233 417.767 93.4131 412.753 89.5706 410.415C87.4918 409.152 85.6414 408.939 84.3659 409.61H84.358C84.2793 409.649 84.2005 409.697 84.1296 409.744L52.5156 428.064L52.5314 428.08C53.7991 427.448 55.6259 427.669 57.6652 428.909C61.492 431.238 64.5943 436.237 64.5943 440.075C64.5943 441.741 64.0037 442.917 63.0274 443.517L94.8934 425.087C94.9091 425.087 94.917 425.071 94.9327 425.063L94.9957 425.032C95.9406 424.408 96.5154 423.255 96.5154 421.612H96.5233Z" fill="#191919" stroke="black" stroke-width="0.856164" stroke-linecap="round" stroke-linejoin="round"/>
<path d="M22.9247 467.959C22.9247 474.158 17.9169 476.132 11.7358 472.374C5.55473 468.615 0.546875 460.537 0.546875 454.338C0.546875 448.139 5.55473 446.165 11.7358 449.924C17.9169 453.683 22.9247 461.761 22.9247 467.959Z" fill="#4C4C4C" stroke="black" stroke-width="0.856164" stroke-linecap="round" stroke-linejoin="round"/>
<path d="M82.5219 435.053C82.5219 428.838 77.4983 420.745 71.3015 416.97C67.9472 414.933 64.9472 414.585 62.8921 415.675H62.8764C62.7504 415.738 62.6244 415.809 62.5063 415.888L3.41211 448.548L3.43573 448.58C5.48296 447.553 8.4357 447.916 11.7349 449.922C17.916 453.681 22.9238 461.759 22.9238 467.958C22.9238 470.65 21.9789 472.546 20.3963 473.517V473.533L79.9235 440.667C79.9472 440.652 79.9629 440.644 79.9865 440.628L80.0889 440.573C81.6164 439.57 82.5377 437.698 82.5377 435.045L82.5219 435.053Z" fill="#191919" stroke="black" stroke-width="0.856164" stroke-linecap="round" stroke-linejoin="round"/>
<path d="M134.333 403.289C106.987 403.289 86.373 392.581 86.373 378.375C86.373 364.17 106.995 353.462 134.333 353.462C161.68 353.462 182.294 364.17 182.294 378.375C182.294 392.581 161.672 403.289 134.333 403.289Z" stroke="#091A23" stroke-width="0.856164" stroke-linecap="round" stroke-linejoin="round"/>
<path d="M134.333 403.289C106.987 403.289 86.373 392.581 86.373 378.375C86.373 364.17 106.995 353.462 134.333 353.462C161.68 353.462 182.294 364.17 182.294 378.375C182.294 392.581 161.672 403.289 134.333 403.289Z" stroke="black" stroke-width="0.856164" stroke-linecap="round" stroke-linejoin="round"/>
<path d="M127.854 192.365L157.531 190.567L173.952 215.266L144.283 217.071L127.854 192.365Z" fill="#E6F8FF" stroke="black" stroke-width="0.856164" stroke-linecap="round" stroke-linejoin="round"/>
<path d="M127.852 192.374L114.455 219.193L130.884 243.899L144.289 217.073L127.852 192.374Z" fill="#BFEDFF" stroke="black" stroke-width="0.856164" stroke-linecap="round" stroke-linejoin="round"/>
<path d="M173.952 215.268L160.554 242.094L130.885 243.891L144.275 217.095L173.952 215.268Z" fill="#80DBFF" stroke="black" stroke-width="0.856164" stroke-linecap="round" stroke-linejoin="round"/>
<path d="M110.17 366.303L120.724 352.047L138.257 354.005L127.698 368.267L110.17 366.303Z" fill="#F8FFD2" stroke="black" stroke-width="0.856164" stroke-linecap="round" stroke-linejoin="round"/>
<path d="M110.17 366.307L117.226 382.717L134.754 384.676L127.698 368.265L110.17 366.307Z" fill="#F1FFA5" stroke="black" stroke-width="0.856164" stroke-linecap="round" stroke-linejoin="round"/>
<path d="M138.257 354.003L145.313 370.414L134.754 384.669L127.703 368.275L138.257 354.003Z" fill="#DCFF1E" stroke="black" stroke-width="0.856164" stroke-linecap="round" stroke-linejoin="round"/>
<path d="M106.509 323.779C117.148 323.779 125.774 315.129 125.774 304.459C125.774 293.789 117.148 285.139 106.509 285.139C95.8696 285.139 87.2441 293.789 87.2441 304.459C87.2441 315.129 95.8696 323.779 106.509 323.779Z" fill="#C795E3" stroke="#091A23" stroke-width="0.856164" stroke-linecap="round" stroke-linejoin="round"/>
<path d="M104.024 294.554C112.824 292.338 121.715 296.584 125.756 304.301C125.747 302.797 125.572 301.274 125.194 299.75C122.599 289.403 112.133 283.117 101.815 285.72C91.497 288.323 85.2288 298.818 87.8244 309.166C88.2018 310.689 88.7725 312.111 89.472 313.44C89.3984 304.726 95.2248 296.76 104.024 294.544V294.554Z" fill="#E3CAF1"/>
<path d="M106.509 323.779C117.148 323.779 125.774 315.129 125.774 304.459C125.774 293.789 117.148 285.139 106.509 285.139C95.8696 285.139 87.2441 293.789 87.2441 304.459C87.2441 315.129 95.8696 323.779 106.509 323.779Z" stroke="black" stroke-width="0.856164" stroke-linecap="round" stroke-linejoin="round"/>
<path d="M119.363 165.716C138.55 165.716 154.106 150.116 154.106 130.872C154.106 111.629 138.55 96.0293 119.363 96.0293C100.174 96.0293 84.6191 111.629 84.6191 130.872C84.6191 150.116 100.174 165.716 119.363 165.716Z" fill="#DCFF1E" stroke="black" stroke-width="0.856164" stroke-linecap="round" stroke-linejoin="round"/>
<path d="M114.88 113.016C130.744 109.018 146.778 116.685 154.072 130.601C154.049 127.884 153.745 125.143 153.056 122.392C148.381 103.73 129.502 92.4065 110.894 97.0945C92.2854 101.783 80.994 120.716 85.6687 139.377C86.3575 142.129 87.385 144.688 88.6383 147.089C88.5028 131.371 99.0038 117.013 114.88 113.016Z" fill="#F3FFB1"/>
<path d="M119.363 165.716C138.55 165.716 154.106 150.116 154.106 130.872C154.106 111.629 138.55 96.0293 119.363 96.0293C100.174 96.0293 84.6191 111.629 84.6191 130.872C84.6191 150.116 100.174 165.716 119.363 165.716Z" stroke="#091A23" stroke-width="0.856164" stroke-linecap="round" stroke-linejoin="round"/>
</svg>
