<svg width="584" height="567" viewBox="0 0 584 567" fill="none" xmlns="http://www.w3.org/2000/svg">
<path d="M198.568 306.284L217.209 317.862L234.328 309.963L198.568 306.284Z" fill="#C795E3" stroke="black" stroke-width="0.856164" stroke-linecap="round" stroke-linejoin="round"/>
<path d="M217.775 336.762L217.207 317.862L198.566 306.284L217.775 336.762Z" fill="#E3CAF1" stroke="black" stroke-width="0.856164" stroke-linecap="round" stroke-linejoin="round"/>
<path d="M217.778 336.782L234.328 309.983L217.209 317.883L217.778 336.782Z" fill="#C795E3" stroke="black" stroke-width="0.856164" stroke-linecap="round" stroke-linejoin="round"/>
<path d="M217.778 336.782L234.328 309.983L217.209 317.883L217.778 336.782Z" fill="#4C4C4C" stroke="black" stroke-width="0.856164" stroke-linecap="round" stroke-linejoin="round"/>
<path d="M220.996 320.888L941.847 739.169C964.797 752.396 978.937 776.904 978.937 803.438C978.937 841.896 937.344 865.89 904.18 846.556L450.95 582.425C427.475 568.737 398.026 585.729 398.026 612.948C398.026 638.968 410.604 663.199 431.466 678.164" stroke="#808080" stroke-width="0.856164" stroke-linecap="round" stroke-linejoin="round" stroke-dasharray="3.42 3.42"/>
<path d="M347.878 317.039L689.535 514.025" stroke="#808080" stroke-width="0.856164" stroke-linecap="round" stroke-linejoin="round" stroke-dasharray="3.42 3.42"/>
<path d="M177.799 408.433L633.898 674.575" stroke="#808080" stroke-width="0.856164" stroke-linecap="round" stroke-linejoin="round" stroke-dasharray="3.42 3.42"/>
<path d="M673.348 478.825V526.845L421.105 672.474L422.435 625.07L673.348 478.825Z" fill="#4C4C4C" stroke="black" stroke-width="0.856164" stroke-linecap="round" stroke-linejoin="round"/>
<path d="M254.131 527.678V576.057L420.667 672.471L421.997 625.197L254.131 527.678Z" fill="#4C4C4C" stroke="black" stroke-width="0.856164" stroke-linecap="round" stroke-linejoin="round"/>
<path d="M673.348 479.256L504.982 381.119L254.128 527.682L422.068 625.4L673.348 479.256Z" fill="black" stroke="black" stroke-width="0.856164" stroke-linecap="round" stroke-linejoin="round"/>
<path d="M673.348 449.076L504.982 350.936L254.128 497.505L422.068 595.217L673.348 449.076Z" fill="#4C4C4C" stroke="black" stroke-width="0.856164" stroke-linecap="round" stroke-linejoin="round"/>
<path d="M542.859 401.692L337.689 520.723" stroke="black" stroke-width="0.856164" stroke-linecap="round" stroke-linejoin="round"/>
<path d="M571.285 418.584L366.116 537.616" stroke="black" stroke-width="0.856164" stroke-linecap="round" stroke-linejoin="round"/>
<path d="M403.488 476.005C447.73 476.005 481.096 457.563 481.096 433.118C481.096 408.673 447.73 390.232 403.488 390.232C359.246 390.232 325.879 408.673 325.879 433.118C325.879 457.563 359.246 476.005 403.488 476.005Z" fill="black" stroke="black" stroke-width="1.05083" stroke-linecap="round" stroke-linejoin="round"/>
<path d="M403.484 466.179C439.765 466.179 467.115 451.971 467.115 433.121C467.115 414.271 439.755 400.063 403.484 400.063C367.202 400.063 339.853 414.271 339.853 433.121C339.853 451.971 367.213 466.179 403.484 466.179Z" fill="#B2B2B2" stroke="black" stroke-width="1.05083" stroke-linecap="round" stroke-linejoin="round"/>
<path d="M325.879 433.121C325.879 457.566 359.246 476.007 403.488 476.007C447.73 476.007 481.096 457.566 481.096 433.121V470.098C481.096 494.543 447.73 512.984 403.488 512.984C359.246 512.984 325.879 494.543 325.879 470.098V433.121Z" fill="#191919" stroke="black" stroke-width="1.05083" stroke-linecap="round" stroke-linejoin="round"/>
<path d="M403.955 458.45C431.848 458.45 454.904 450.77 466.166 439.045C461.088 454.867 435.849 466.183 403.485 466.183C371.121 466.183 344.294 454.144 340.387 437.547C351.074 450.11 374.893 458.45 403.955 458.45Z" fill="#4C4C4C"/>
<path d="M496.003 514.995C496.003 520.087 500.119 521.711 505.197 518.62C510.274 515.529 514.39 508.897 514.39 503.804C514.39 498.712 510.274 497.088 505.197 500.179C500.119 503.27 496.003 509.902 496.003 514.995Z" fill="#4C4C4C" stroke="black" stroke-width="1.05083" stroke-linecap="round" stroke-linejoin="round"/>
<path d="M453.65 490.49C453.65 485.387 457.776 478.733 462.874 475.632C465.632 473.955 468.087 473.673 469.78 474.563H469.79C469.895 474.616 469.999 474.678 470.093 474.741L512.037 499.05L512.016 499.071C510.334 498.233 507.91 498.526 505.204 500.171C500.127 503.262 496.011 509.895 496.011 514.987C496.011 517.198 496.795 518.759 498.09 519.556L455.812 495.1C455.792 495.1 455.781 495.079 455.76 495.069L455.677 495.027C454.423 494.199 453.66 492.669 453.66 490.49H453.65Z" fill="#191919" stroke="black" stroke-width="1.05083" stroke-linecap="round" stroke-linejoin="round"/>
<path d="M551.296 551.981C551.296 560.206 557.94 562.826 566.141 557.838C574.341 552.851 580.986 542.132 580.986 533.906C580.986 525.681 574.341 523.062 566.141 528.049C557.94 533.037 551.296 543.756 551.296 551.981Z" fill="#4C4C4C" stroke="black" stroke-width="1.05083" stroke-linecap="round" stroke-linejoin="round"/>
<path d="M472.223 508.314C472.223 500.068 478.888 489.328 487.11 484.319C491.56 481.616 495.54 481.155 498.267 482.601H498.288C498.455 482.685 498.622 482.779 498.779 482.884L577.181 526.221L577.15 526.263C574.434 524.9 570.516 525.382 566.139 528.044C557.938 533.031 551.294 543.75 551.294 551.976C551.294 555.549 552.548 558.063 554.648 559.352V559.373L475.671 515.764C475.639 515.743 475.618 515.732 475.587 515.711L475.451 515.638C473.425 514.307 472.202 511.824 472.202 508.303L472.223 508.314Z" fill="#191919" stroke="black" stroke-width="1.05083" stroke-linecap="round" stroke-linejoin="round"/>
<path d="M403.484 466.179C439.765 466.179 467.115 451.971 467.115 433.121C467.115 414.271 439.755 400.063 403.484 400.063C367.202 400.063 339.853 414.271 339.853 433.121C339.853 451.971 367.213 466.179 403.484 466.179Z" stroke="black" stroke-width="1.05083" stroke-linecap="round" stroke-linejoin="round"/>
<path d="M403.484 466.179C439.765 466.179 467.115 451.971 467.115 433.121C467.115 414.271 439.755 400.063 403.484 400.063C367.202 400.063 339.853 414.271 339.853 433.121C339.853 451.971 367.213 466.179 403.484 466.179Z" stroke="black" stroke-width="1.05083" stroke-linecap="round" stroke-linejoin="round"/>
<path d="M380.015 185.167L340.641 182.782L318.854 215.556L358.217 217.951L380.015 185.167Z" fill="#E6F8FF" stroke="black" stroke-width="1.05083" stroke-linecap="round" stroke-linejoin="round"/>
<path d="M380.016 185.173L397.79 220.758L375.993 253.542L358.209 217.946L380.016 185.173Z" fill="#BFEDFF" stroke="black" stroke-width="1.05083" stroke-linecap="round" stroke-linejoin="round"/>
<path d="M318.854 215.562L336.629 251.158L375.993 253.543L358.228 217.987L318.854 215.562Z" fill="#80DBFF" stroke="black" stroke-width="1.05083" stroke-linecap="round" stroke-linejoin="round"/>
<path d="M428.542 417.094L414.54 398.178L391.278 400.777L405.287 419.701L428.542 417.094Z" fill="#F8FFD2" stroke="black" stroke-width="1.05083" stroke-linecap="round" stroke-linejoin="round"/>
<path d="M428.542 417.097L419.181 438.873L395.926 441.472L405.287 419.696L428.542 417.097Z" fill="#F1FFA5" stroke="black" stroke-width="1.05083" stroke-linecap="round" stroke-linejoin="round"/>
<path d="M391.275 400.771L381.914 422.547L395.924 441.463L405.278 419.709L391.275 400.771Z" fill="#DCFF1E" stroke="black" stroke-width="1.05083" stroke-linecap="round" stroke-linejoin="round"/>
<path d="M465.188 334.602C451.072 334.602 439.628 323.124 439.628 308.966C439.628 294.808 451.072 283.33 465.188 283.33C479.303 283.33 490.747 294.808 490.747 308.966C490.747 323.124 479.303 334.602 465.188 334.602Z" fill="#C795E3" stroke="black" stroke-width="1.05083" stroke-linecap="round" stroke-linejoin="round"/>
<path d="M468.482 295.823C456.807 292.883 445.01 298.518 439.649 308.757C439.662 306.761 439.894 304.74 440.394 302.719C443.838 288.988 457.723 280.647 471.412 284.101C485.102 287.555 493.418 301.482 489.975 315.212C489.474 317.233 488.717 319.12 487.789 320.883C487.886 309.321 480.156 298.75 468.482 295.811V295.823Z" fill="#E3CAF1"/>
<path d="M465.188 334.602C451.072 334.602 439.628 323.124 439.628 308.966C439.628 294.808 451.072 283.33 465.188 283.33C479.303 283.33 490.747 294.808 490.747 308.966C490.747 323.124 479.303 334.602 465.188 334.602Z" stroke="black" stroke-width="1.05083" stroke-linecap="round" stroke-linejoin="round"/>
<path d="M439.246 104.435C413.79 104.435 393.151 83.7351 393.151 58.2008C393.151 32.6666 413.79 11.967 439.246 11.967C464.705 11.967 485.342 32.6666 485.342 58.2008C485.342 83.7351 464.705 104.435 439.246 104.435Z" fill="#DCFF1E" stroke="black" stroke-width="1.05083" stroke-linecap="round" stroke-linejoin="round"/>
<path d="M445.192 34.5058C424.144 29.2017 402.871 39.3741 393.194 57.8406C393.224 54.2344 393.628 50.5982 394.542 46.947C400.744 22.1848 425.792 7.15916 450.48 13.3798C475.168 19.6004 490.149 44.7232 483.947 69.4854C483.033 73.1366 481.67 76.5324 480.007 79.7179C480.187 58.8623 466.255 39.8098 445.192 34.5058Z" fill="#F3FFB1"/>
<path d="M439.246 104.435C413.79 104.435 393.151 83.7351 393.151 58.2008C393.151 32.6666 413.79 11.967 439.246 11.967C464.705 11.967 485.342 32.6666 485.342 58.2008C485.342 83.7351 464.705 104.435 439.246 104.435Z" stroke="black" stroke-width="1.05083" stroke-linecap="round" stroke-linejoin="round"/>
</svg>
