<svg width="490" height="475" viewBox="0 0 490 475" fill="none" xmlns="http://www.w3.org/2000/svg">
<mask id="mask0_801_12739" style="mask-type:luminance" maskUnits="userSpaceOnUse" x="10" y="0" width="480" height="465">
<path d="M490 0H10.2256V464.503H490V0Z" fill="white"/>
</mask>
<g mask="url(#mask0_801_12739)">
<path d="M248.468 247.75L233.388 257.115L219.539 250.726L248.468 247.75Z" fill="#C795E3" stroke="#091A23" stroke-width="0.856164" stroke-linecap="round" stroke-linejoin="round"/>
<path d="M232.931 272.402L233.391 257.115L248.47 247.75L232.931 272.402Z" fill="#E3CAF1" stroke="#091A23" stroke-width="0.856164" stroke-linecap="round" stroke-linejoin="round"/>
<path d="M232.928 272.411L219.539 250.734L233.388 257.124L232.928 272.411Z" fill="#C795E3" stroke="#091A23" stroke-width="0.856164" stroke-linecap="round" stroke-linejoin="round"/>
<path d="M232.928 272.411L219.539 250.734L233.388 257.124L232.928 272.411Z" fill="#2D4754" stroke="#091A23" stroke-width="0.856164" stroke-linecap="round" stroke-linejoin="round"/>
<path d="M230.323 259.57L-352.826 597.903C-371.391 608.602 -382.83 628.425 -382.83 649.888C-382.83 680.996 -349.183 700.404 -322.354 684.764L44.2962 471.119C63.2867 460.047 87.1098 473.791 87.1098 495.807C87.1098 516.854 76.9348 536.454 60.0579 548.558" stroke="#091A23" stroke-width="0.856164" stroke-linecap="round" stroke-linejoin="round" stroke-dasharray="3.42 3.42"/>
<path d="M257.121 317.047L-84.5371 514.032" stroke="#091A23" stroke-width="0.856164" stroke-linecap="round" stroke-linejoin="round" stroke-dasharray="3.42 3.42"/>
<path d="M346.166 330.383L-22.8057 545.655" stroke="#091A23" stroke-width="0.856164" stroke-linecap="round" stroke-linejoin="round" stroke-dasharray="3.42 3.42"/>
<path d="M-54.7197 387.305V426.147L149.338 543.94L148.262 505.597L-54.7197 387.305Z" fill="#F0F2F2" stroke="#091A23" stroke-width="0.856164" stroke-linecap="round" stroke-linejoin="round"/>
<path d="M284.416 426.82V465.952L149.694 543.938L148.617 505.699L284.416 426.82Z" fill="#F0F2F2" stroke="#091A23" stroke-width="0.856164" stroke-linecap="round" stroke-linejoin="round"/>
<path d="M-54.7197 387.653L81.4838 308.273L284.418 426.823L148.559 505.864L-54.7197 387.653Z" fill="white" stroke="#091A23" stroke-width="0.856164" stroke-linecap="round" stroke-linejoin="round"/>
<path d="M-54.7197 363.242L81.4838 283.859L284.418 402.414L148.559 481.45L-54.7197 363.242Z" fill="#FAFBFB" stroke="#091A23" stroke-width="0.856164" stroke-linecap="round" stroke-linejoin="round"/>
<path d="M50.8418 324.922L216.818 421.202" stroke="#091A23" stroke-width="0.856164" stroke-linecap="round" stroke-linejoin="round"/>
<path d="M27.8477 338.578L193.824 434.859" stroke="#091A23" stroke-width="0.856164" stroke-linecap="round" stroke-linejoin="round"/>
</g>
<path d="M134.333 410.422C100.986 410.422 75.8369 396.524 75.8369 378.102C75.8369 359.679 100.986 345.781 134.333 345.781C167.679 345.781 192.828 359.679 192.828 378.102C192.828 396.524 167.679 410.422 134.333 410.422Z" fill="#2D4754" stroke="#091A23" stroke-width="0.856164" stroke-linecap="round" stroke-linejoin="round"/>
<path d="M134.333 403.013C106.987 403.013 86.373 392.305 86.373 378.099C86.373 363.893 106.995 353.186 134.333 353.186C161.68 353.186 182.294 363.893 182.294 378.099C182.294 392.305 161.672 403.013 134.333 403.013Z" fill="white" stroke="#091A23" stroke-width="0.856164" stroke-linecap="round" stroke-linejoin="round"/>
<path d="M192.828 378.1C192.828 396.522 167.679 410.42 134.333 410.42C100.986 410.42 75.8369 396.522 75.8369 378.1V405.966C75.8369 424.389 100.986 438.287 134.333 438.287C167.679 438.287 192.828 424.389 192.828 405.966V378.1Z" fill="#5C707A" stroke="#091A23" stroke-width="0.856164" stroke-linecap="round" stroke-linejoin="round"/>
<path d="M133.98 397.189C112.957 397.189 95.579 391.401 87.0908 382.565C90.9176 394.488 109.941 403.017 134.335 403.017C158.728 403.017 178.949 393.944 181.894 381.436C173.838 390.903 155.886 397.189 133.98 397.189Z" fill="#BFEDFF"/>
<path d="M64.6014 439.805C64.6014 443.643 61.499 444.867 57.6723 442.538C53.8455 440.208 50.7432 435.21 50.7432 431.372C50.7432 427.534 53.8455 426.31 57.6723 428.64C61.499 430.969 64.6014 435.968 64.6014 439.805Z" fill="#E8EBEC" stroke="#091A23" stroke-width="0.856164" stroke-linecap="round" stroke-linejoin="round"/>
<path d="M96.5223 421.335C96.5223 417.49 93.4121 412.475 89.5696 410.138C87.4909 408.874 85.6405 408.661 84.3649 409.332H84.357C84.2783 409.372 84.1995 409.419 84.1287 409.467L52.5146 427.787L52.5304 427.802C53.7981 427.171 55.6249 427.392 57.6642 428.632C61.491 430.961 64.5933 435.959 64.5933 439.797C64.5933 441.463 64.0028 442.64 63.0264 443.24L94.8924 424.81C94.9081 424.81 94.916 424.794 94.9318 424.786L94.9948 424.754C95.9396 424.13 96.5144 422.978 96.5144 421.335H96.5223Z" fill="#163341" stroke="#091A23" stroke-width="0.856164" stroke-linecap="round" stroke-linejoin="round"/>
<path d="M22.9247 467.683C22.9247 473.882 17.9169 475.856 11.7358 472.097C5.55473 468.338 0.546875 460.26 0.546875 454.062C0.546875 447.863 5.55473 445.889 11.7358 449.647C17.9169 453.406 22.9247 461.484 22.9247 467.683Z" fill="#E8EBEC" stroke="#091A23" stroke-width="0.856164" stroke-linecap="round" stroke-linejoin="round"/>
<path d="M82.5219 434.776C82.5219 428.561 77.4983 420.467 71.3015 416.693C67.9472 414.655 64.9472 414.308 62.8921 415.398H62.8764C62.7504 415.461 62.6244 415.532 62.5063 415.611L3.41211 448.271L3.43573 448.302C5.48296 447.276 8.4357 447.639 11.7349 449.645C17.916 453.404 22.9238 461.482 22.9238 467.68C22.9238 470.373 21.9789 472.268 20.3963 473.24V473.255L79.9235 440.39C79.9472 440.374 79.9629 440.366 79.9865 440.351L80.0889 440.295C81.6164 439.292 82.5377 437.421 82.5377 434.768L82.5219 434.776Z" fill="#2D4754" stroke="#091A23" stroke-width="0.856164" stroke-linecap="round" stroke-linejoin="round"/>
<path d="M134.333 403.013C106.987 403.013 86.373 392.305 86.373 378.099C86.373 363.893 106.995 353.186 134.333 353.186C161.68 353.186 182.294 363.893 182.294 378.099C182.294 392.305 161.672 403.013 134.333 403.013Z" stroke="#091A23" stroke-width="0.856164" stroke-linecap="round" stroke-linejoin="round"/>
<path d="M134.333 403.013C106.987 403.013 86.373 392.305 86.373 378.099C86.373 363.893 106.995 353.186 134.333 353.186C161.68 353.186 182.294 363.893 182.294 378.099C182.294 392.305 161.672 403.013 134.333 403.013Z" stroke="#091A23" stroke-width="0.856164" stroke-linecap="round" stroke-linejoin="round"/>
<path d="M127.855 192.086L157.532 190.289L173.954 214.988L144.285 216.793L127.855 192.086Z" fill="#E6F8FF" stroke="#091A23" stroke-width="0.856164" stroke-linecap="round" stroke-linejoin="round"/>
<path d="M127.854 192.096L114.457 218.914L130.886 243.621L144.291 216.795L127.854 192.096Z" fill="#BFEDFF" stroke="#091A23" stroke-width="0.856164" stroke-linecap="round" stroke-linejoin="round"/>
<path d="M173.954 214.99L160.556 241.816L130.887 243.614L144.276 216.818L173.954 214.99Z" fill="#80DBFF" stroke="#091A23" stroke-width="0.856164" stroke-linecap="round" stroke-linejoin="round"/>
<path d="M110.172 366.025L120.726 351.77L138.259 353.728L127.7 367.989L110.172 366.025Z" fill="#F8FFD2" stroke="#091A23" stroke-width="0.856164" stroke-linecap="round" stroke-linejoin="round"/>
<path d="M110.172 366.029L117.228 382.44L134.756 384.399L127.7 367.988L110.172 366.029Z" fill="#F1FFA5" stroke="#091A23" stroke-width="0.856164" stroke-linecap="round" stroke-linejoin="round"/>
<path d="M138.26 353.727L145.316 370.137L134.756 384.393L127.706 367.999L138.26 353.727Z" fill="#DCFF1E" stroke="#091A23" stroke-width="0.856164" stroke-linecap="round" stroke-linejoin="round"/>
<path d="M106.511 323.503C117.15 323.503 125.776 314.853 125.776 304.183C125.776 293.513 117.15 284.863 106.511 284.863C95.8716 284.863 87.2461 293.513 87.2461 304.183C87.2461 314.853 95.8716 323.503 106.511 323.503Z" fill="#C795E3" stroke="#091A23" stroke-width="0.856164" stroke-linecap="round" stroke-linejoin="round"/>
<path d="M104.026 294.277C112.826 292.062 121.717 296.308 125.758 304.025C125.749 302.52 125.574 300.997 125.196 299.474C122.601 289.126 112.135 282.84 101.817 285.443C91.499 288.046 85.2307 298.542 87.8264 308.89C88.2038 310.413 88.7745 311.834 89.474 313.163C89.4004 304.45 95.2268 296.483 104.026 294.268V294.277Z" fill="#E3CAF1"/>
<path d="M106.511 323.503C117.15 323.503 125.776 314.853 125.776 304.183C125.776 293.513 117.15 284.863 106.511 284.863C95.8716 284.863 87.2461 293.513 87.2461 304.183C87.2461 314.853 95.8716 323.503 106.511 323.503Z" stroke="#091A23" stroke-width="0.856164" stroke-linecap="round" stroke-linejoin="round"/>
<path d="M119.364 165.44C138.551 165.44 154.107 149.84 154.107 130.597C154.107 111.354 138.551 95.7539 119.364 95.7539C100.175 95.7539 84.6201 111.354 84.6201 130.597C84.6201 149.84 100.175 165.44 119.364 165.44Z" fill="#DCFF1E" stroke="#091A23" stroke-width="0.856164" stroke-linecap="round" stroke-linejoin="round"/>
<path d="M114.881 112.739C130.745 108.742 146.779 116.408 154.073 130.325C154.05 127.607 153.746 124.867 153.057 122.115C148.382 103.454 129.503 92.1302 110.895 96.8182C92.2864 101.506 80.995 120.439 85.6697 139.101C86.3584 141.853 87.386 144.412 88.6393 146.812C88.5038 131.095 99.0048 116.737 114.881 112.739Z" fill="#F3FFB1"/>
<path d="M119.364 165.44C138.551 165.44 154.107 149.84 154.107 130.597C154.107 111.354 138.551 95.7539 119.364 95.7539C100.175 95.7539 84.6201 111.354 84.6201 130.597C84.6201 149.84 100.175 165.44 119.364 165.44Z" stroke="#091A23" stroke-width="0.856164" stroke-linecap="round" stroke-linejoin="round"/>
</svg>
