<svg width="124" height="115" viewBox="0 0 124 115" fill="none" xmlns="http://www.w3.org/2000/svg">
<path d="M76.4575 103.902C73.9695 105.322 71.0293 106.042 67.7173 106.042C62.1799 106.042 55.8522 104.035 49.418 100.237C39.5625 94.4188 30.3622 85.1743 23.5119 74.2088C16.7501 63.3837 13.0273 52.0984 13.0273 42.4328C13.0273 33.9422 16.0352 27.5495 21.4972 24.4325C23.9851 23.0131 26.9279 22.293 30.24 22.293C35.7773 22.293 42.105 24.2999 48.5393 28.0981C58.3947 33.9162 67.5951 43.1607 74.4453 54.1262C81.2071 64.9513 84.9299 76.2366 84.9299 85.9022C84.9299 94.3928 81.922 100.785 76.46 103.902H76.4575Z" fill="#163341" stroke="#091A23" stroke-width="0.5" stroke-linecap="round" stroke-linejoin="round"/>
<path d="M75.6094 54.3389L39.6035 75.1754V51.1699L75.6094 30.3359V54.3389Z" fill="white" stroke="#091A23" stroke-width="0.5" stroke-linecap="round" stroke-linejoin="round"/>
<path d="M48.4766 54.1889L66.7395 43.6289" stroke="#B9C2C6" stroke-width="0.5" stroke-linecap="round" stroke-linejoin="round"/>
<path d="M48.4766 58.0326L66.7395 47.4727" stroke="#B9C2C6" stroke-width="0.5" stroke-linecap="round" stroke-linejoin="round"/>
<path d="M48.4766 61.8764L66.7395 51.3164" stroke="#B9C2C6" stroke-width="0.5" stroke-linecap="round" stroke-linejoin="round"/>
<path d="M91.2734 55.8389L55.2676 76.6754V52.6699L91.2734 31.8359V55.8389Z" fill="white" stroke="#091A23" stroke-width="0.5" stroke-linecap="round" stroke-linejoin="round"/>
<path d="M64.1406 55.6967L82.4009 45.1367" stroke="#B9C2C6" stroke-width="0.5" stroke-linecap="round" stroke-linejoin="round"/>
<path d="M64.1406 59.5365L82.4009 48.9766" stroke="#B9C2C6" stroke-width="0.5" stroke-linecap="round" stroke-linejoin="round"/>
<path d="M64.1406 63.3803L82.4009 52.8203" stroke="#B9C2C6" stroke-width="0.5" stroke-linecap="round" stroke-linejoin="round"/>
<path d="M59.7546 31.7998L23.7461 52.6363V28.6308L59.7546 7.79688V31.7998Z" fill="white" stroke="#091A23" stroke-width="0.5" stroke-linecap="round" stroke-linejoin="round"/>
<path d="M59.6584 31.8311L48.3809 22.1992L38.1432 42.0427L31.1396 38.0131L23.7461 52.6364L59.6584 31.8311Z" fill="#DCFF1E"/>
<path d="M39.8276 25.9633C39.8276 27.089 38.9151 28.5318 37.7869 29.1843C36.6586 29.8369 35.7461 29.4521 35.7461 28.3238C35.7461 27.1956 36.6586 25.7554 37.7869 25.1028C38.9125 24.4503 39.8276 24.8351 39.8276 25.9633Z" fill="#DCFF1E"/>
<path d="M59.7546 31.7998L23.7461 52.6363V28.6308L59.7546 7.79688V31.7998Z" stroke="#091A23" stroke-width="0.5" stroke-linecap="round" stroke-linejoin="round"/>
<path d="M29.9096 100.342C23.7197 94.6588 18.1018 87.9022 13.4639 80.4722C5.54003 67.791 1.17773 54.2752 1.17773 42.418" stroke="#091A23" stroke-width="0.5" stroke-linecap="round" stroke-linejoin="round" stroke-dasharray="4 4"/>
<path d="M51.6529 22.8165C39.2524 15.4958 27.156 14.144 18.4574 19.1068C11.004 23.3625 6.89648 31.6451 6.89648 42.4312C6.89648 64.7599 24.2053 92.47 46.3002 105.515C53.7743 109.927 61.1392 112.173 67.7165 112.173C72.0502 112.173 76.0407 111.198 79.4957 109.225C86.9491 104.969 91.0566 96.6867 91.0566 85.9006C91.0566 63.5719 73.7478 35.8618 51.6529 22.8165ZM76.4593 103.901C73.9714 105.32 71.0311 106.04 67.7191 106.04C62.1817 106.04 55.854 104.033 49.4198 100.235C39.5643 94.4172 30.364 85.1727 23.5138 74.2072C16.752 63.3821 13.0292 52.0968 13.0292 42.4312C13.0292 33.9406 16.037 27.548 21.499 24.4309C23.9869 23.0115 26.9298 22.2914 30.2418 22.2914C35.7792 22.2914 42.1068 24.2983 48.5411 28.0965C58.3966 33.9146 67.5969 43.1591 74.4471 54.1246C81.2089 64.9497 84.9317 76.235 84.9317 85.9006C84.9317 94.3912 81.9239 100.784 76.4619 103.901H76.4593Z" fill="#B9C2C6" stroke="#091A23" stroke-width="0.5" stroke-linecap="round" stroke-linejoin="round"/>
<path d="M44.4023 83.1188L8.39648 104.083V80.0798L44.4023 59.1133V83.1188Z" fill="white" stroke="#091A23" stroke-width="0.5" stroke-linecap="round" stroke-linejoin="round"/>
<path d="M34.0596 77.1391C34.0596 72.9094 30.6306 71.4769 26.4009 73.9388C22.1712 76.4007 18.7422 81.8289 18.7422 86.0586C18.7422 90.2883 22.1712 91.7207 26.4009 89.2588C30.6306 86.7969 34.0596 81.3688 34.0596 77.1391Z" fill="#80DBFF"/>
<path d="M24.459 86.0143L30.5449 79.1875L24.459 79.4475V86.0143Z" fill="white"/>
<path d="M84.9362 85.8555C84.9362 81.1188 84.0393 75.9922 82.3313 70.7227L52.3438 88.0288L52.3645 113.836L83.0852 96.106C84.2993 93.2048 84.9362 89.7524 84.9362 85.8529V85.8555Z" fill="white" stroke="#091A23" stroke-width="0.5" stroke-linecap="round" stroke-linejoin="round"/>
<path d="M79.9418 84.9608C79.9392 80.4139 76.2554 78.8489 71.7164 81.4694C67.1773 84.0899 63.5013 89.8976 63.5039 94.447C63.5065 98.9939 67.1903 100.559 71.7294 97.9384C76.2684 95.3179 79.9444 89.5102 79.9418 84.9608Z" fill="#C795E3"/>
<path d="M76.9862 83.4373L76.2063 83.8896L76.2115 90.5994L76.9914 90.1471L76.9862 83.4373ZM72.1741 82.5508L71.3968 83.0031H71.3942L71.4046 97.0207L72.1845 96.5657L72.1741 82.5508ZM74.6724 82.8653L73.8925 83.3177L73.9003 93.8334L74.6724 93.3863H74.6776L74.6802 93.3837L74.6724 82.8653ZM69.759 85.7094L68.9791 86.1592L68.9869 96.6749L69.759 96.2304H69.7642L69.7668 96.2278L69.759 85.7094ZM67.4479 88.9564L66.668 89.4088L66.6732 96.1186L67.4531 95.6662L67.4479 88.9564Z" fill="white"/>
<path d="M106.318 25.9258C107.977 28.1381 109.55 30.431 111.024 32.7916C118.945 45.4755 123.307 58.9887 123.307 70.8458C123.307 75.9256 122.514 80.5635 120.986 84.6424" stroke="#091A23" stroke-width="0.5" stroke-linecap="round" stroke-linejoin="round" stroke-dasharray="4 4"/>
<path d="M78.1845 7.75515C65.7839 0.434417 53.6875 -0.920022 44.9915 4.04539L18.459 19.1028C27.155 14.14 39.2514 15.4918 51.6546 22.8126C73.7494 35.8578 91.0582 63.5653 91.0582 85.8967C91.0582 96.6802 86.9533 104.963 79.4974 109.221L106.03 94.1637C113.483 89.908 117.591 81.6254 117.591 70.8393C117.591 48.5105 100.282 20.8004 78.1871 7.75515H78.1845Z" fill="#E8EBEC" stroke="#091A23" stroke-width="0.5" stroke-linecap="round" stroke-linejoin="round"/>
<path d="M32.0137 62.4414L23.666 67.2118" stroke="white" stroke-width="0.5" stroke-linecap="round" stroke-linejoin="round"/>
<path d="M79.2825 68.0273L70.9375 72.7978" stroke="white" stroke-width="0.5" stroke-linecap="round" stroke-linejoin="round"/>
<path d="M43.4648 45.707L35.1172 50.4749" stroke="white" stroke-width="0.5" stroke-linecap="round" stroke-linejoin="round"/>
</svg>
