<svg width="86" height="116" viewBox="0 0 86 116" fill="none" xmlns="http://www.w3.org/2000/svg">
<path d="M80.6522 98.7108C80.6522 102.859 75.4089 107.225 66.9289 109.161C66.297 109.304 65.6482 109.436 64.9801 109.55C62.6358 109.962 60.0792 110.186 57.3466 110.186C54.3149 110.186 51.5027 109.904 48.9558 109.405C48.2853 109.275 47.6366 109.132 47.0071 108.973C38.9708 106.957 34.041 102.731 34.041 98.7084C34.041 94.6855 38.9732 90.4599 47.0071 88.4436C47.639 88.2844 48.2853 88.1421 48.9558 88.0119C51.5027 87.5127 54.3149 87.2305 57.3466 87.2305C60.0792 87.2305 62.6358 87.4572 64.9801 87.8672C65.6482 87.9805 66.2994 88.1132 66.9289 88.2555C75.4089 90.1922 80.6522 94.5576 80.6522 98.706V98.7108Z" fill="#163341"/>
<path d="M57.344 115.143C41.4958 115.143 29.082 107.924 29.082 98.7112C29.082 89.4979 41.4958 82.2793 57.344 82.2793C73.1922 82.2793 85.6059 89.4979 85.6059 98.7112C85.6059 107.924 73.1922 115.143 57.344 115.143ZM57.344 87.2356C43.4011 87.2356 34.036 93.1688 34.036 98.7112C34.036 104.254 43.4011 110.187 57.344 110.187C71.2868 110.187 80.652 104.254 80.652 98.7112C80.652 93.1688 71.2868 87.2356 57.344 87.2356Z" fill="#E8EBEC" stroke="#091A23" stroke-width="0.5" stroke-linecap="round" stroke-linejoin="round"/>
<path d="M57.3432 87.2344C43.4003 87.2344 34.0352 93.1675 34.0352 98.7099C34.0352 99.3515 34.1654 99.9978 34.409 100.642C36.2709 95.7361 45.0139 91.0957 57.3408 91.0957C69.6677 91.0957 78.413 95.7361 80.2726 100.642C80.5161 100 80.6464 99.3515 80.6464 98.7099C80.6464 93.1675 71.2812 87.2344 57.3384 87.2344H57.3432Z" fill="#B9C2C6" stroke="#091A23" stroke-width="0.5" stroke-linecap="round" stroke-linejoin="round"/>
<path opacity="0.5" d="M57.2984 74.6237C46.4355 74.6237 37.6347 71.1362 34.193 65.9772C34.1809 79.8405 34.1641 98.4937 34.1641 98.636C34.1641 102.635 39.0673 106.839 47.0602 108.843C47.6873 109.002 48.3312 109.144 48.9993 109.272C51.5317 109.767 54.3295 110.049 57.3443 110.049C60.0624 110.049 62.6045 109.824 64.9367 109.414C65.6 109.301 66.2488 109.171 66.8759 109.029C75.3101 107.104 80.5245 102.76 80.5245 98.636C80.5245 98.5757 80.5968 79.0253 80.6475 65.5938C77.3939 70.9625 68.4291 74.6237 57.2984 74.6237Z" fill="#80DBFF"/>
<path d="M57.3011 62.905C43.2377 62.905 32.6328 57.0611 32.6328 49.3119C32.6328 41.5626 43.2377 35.7188 57.3011 35.7188C71.3646 35.7188 81.9694 41.5626 81.9694 49.3119C81.9694 57.0611 71.3646 62.905 57.3011 62.905Z" fill="#5C707A" stroke="#091A23" stroke-width="0.5" stroke-linecap="round" stroke-linejoin="round"/>
<path d="M57.3004 59.79C45.7694 59.79 37.0723 55.2847 37.0723 49.313C37.0723 43.3413 45.7669 38.8359 57.3004 38.8359C68.8314 38.8359 77.5285 43.3413 77.5285 49.313C77.5285 55.2847 68.8338 59.79 57.3004 59.79Z" fill="white" stroke="#091A23" stroke-width="0.5" stroke-linecap="round" stroke-linejoin="round"/>
<path d="M81.9694 49.3125C81.9694 57.0617 71.3646 62.9056 57.3011 62.9056C43.2377 62.9056 32.6328 57.0617 32.6328 49.3125V61.0292C32.6328 68.7785 43.2377 74.6224 57.3011 74.6224C71.3646 74.6224 81.9694 68.7785 81.9694 61.0292V49.3125Z" fill="#B9C2C6" stroke="#091A23" stroke-width="0.5" stroke-linecap="round" stroke-linejoin="round"/>
<path d="M57.3004 42.007C67.7871 42.007 75.9246 45.7309 77.3162 50.8995C77.4537 50.3834 77.5285 49.8552 77.5285 49.3149C77.5285 43.3432 68.8338 38.8379 57.3004 38.8379C45.7669 38.8379 37.0723 43.3432 37.0723 49.3149C37.0723 49.8576 37.147 50.3858 37.2845 50.8995C38.6737 45.7333 46.8137 42.007 57.3004 42.007Z" fill="#BFEDFF"/>
<path d="M57.3004 59.79C45.7694 59.79 37.0723 55.2847 37.0723 49.313C37.0723 43.3413 45.7669 38.8359 57.3004 38.8359C68.8314 38.8359 77.5285 43.3413 77.5285 49.313C77.5285 55.2847 68.8338 59.79 57.3004 59.79Z" stroke="#091A23" stroke-width="0.5" stroke-linecap="round" stroke-linejoin="round"/>
<path d="M10.3149 86.9812C10.3149 89.5884 8.20217 90.418 5.59497 88.8383C2.98777 87.2561 0.875 83.8626 0.875 81.2554C0.875 78.6482 2.98777 77.8186 5.59497 79.3983C8.20217 80.9805 10.3149 84.374 10.3149 86.9812Z" fill="#2D4754" stroke="#091A23" stroke-width="0.5" stroke-linecap="round" stroke-linejoin="round"/>
<path d="M35.4504 73.1436C35.4504 70.5291 33.3328 67.126 30.7184 65.539C29.3051 64.6828 28.0412 64.5381 27.173 64.994L27.1658 64.9964C27.1127 65.0253 27.0596 65.0543 27.0114 65.0856L2.08984 78.821L2.09949 78.8331C2.96293 78.4014 4.20744 78.5533 5.59666 79.3951C8.20386 80.9772 10.3166 84.3707 10.3166 86.9779C10.3166 88.1115 9.91627 88.9074 9.2506 89.3174L9.25542 89.3246L34.353 75.5048C34.353 75.5048 34.3699 75.4951 34.3796 75.4903L34.4206 75.4662V75.4614C35.0621 75.0441 35.4504 74.2554 35.4504 73.1412V73.1436Z" fill="#5C707A" stroke="#091A23" stroke-width="0.5" stroke-linecap="round" stroke-linejoin="round"/>
<path d="M57.2984 59.79C45.7674 59.79 37.0703 55.2847 37.0703 49.313C37.0703 43.3413 45.765 38.8359 57.2984 38.8359C68.8294 38.8359 77.5265 43.3413 77.5265 49.313C77.5265 55.2847 68.8318 59.79 57.2984 59.79Z" stroke="#091A23" stroke-width="0.5" stroke-linecap="round" stroke-linejoin="round"/>
<path d="M57.2984 59.79C45.7674 59.79 37.0703 55.2847 37.0703 49.313C37.0703 43.3413 45.765 38.8359 57.2984 38.8359C68.8294 38.8359 77.5265 43.3413 77.5265 49.313C77.5265 55.2847 68.8318 59.79 57.2984 59.79Z" stroke="#091A23" stroke-width="0.5" stroke-linecap="round" stroke-linejoin="round"/>
<path d="M41.3549 67.4937C41.3549 65.8754 40.0428 63.7674 38.4245 62.7858C37.549 62.2552 36.7651 62.166 36.2297 62.4482H36.2249C36.1911 62.465 36.1598 62.4843 36.1284 62.5036L30.791 65.5884C33.0171 66.9728 34.867 69.6644 35.3349 72.0401L40.6747 68.9577C40.6747 68.9577 40.6868 68.9505 40.6916 68.9481L40.7182 68.9336C41.1185 68.6731 41.3573 68.1859 41.3573 67.4937H41.3549Z" fill="#2D4754" stroke="#091A23" stroke-width="0.5" stroke-linecap="round" stroke-linejoin="round"/>
<path d="M68.3879 34.2859C68.3879 40.055 64.3095 47.0855 59.276 49.9918C54.2449 52.8981 50.1641 50.5754 50.1641 44.8063C50.1641 39.0372 54.2425 32.0067 59.276 29.1004C64.3071 26.1942 68.3879 28.5168 68.3879 34.2859Z" fill="#C795E3" stroke="#091A23" stroke-width="0.5" stroke-linecap="round" stroke-linejoin="round"/>
<path d="M58.0823 43.314V42.535C58.0823 41.9417 58.1981 41.3918 58.432 40.8877C58.6636 40.3837 59.0615 39.8386 59.6259 39.2525L60.0383 38.828C60.6413 38.2202 61.1116 37.651 61.4492 37.1229C61.7869 36.5947 61.9581 36.0327 61.9581 35.4394C61.9581 35.0077 61.8448 34.7062 61.6181 34.5422C61.3938 34.3758 61.085 34.3251 60.6967 34.3878C60.3084 34.4529 59.8622 34.629 59.3606 34.9184C58.8589 35.2079 58.3983 35.5576 57.9786 35.9676C57.5565 36.3776 57.2213 36.8286 56.9704 37.3182C56.7196 37.8102 56.5942 38.3143 56.5942 38.8328V39.3514L54.5996 40.5018V39.9833C54.5996 39.1416 54.8094 38.2974 55.2315 37.4485C55.6512 36.5995 56.2204 35.8108 56.9343 35.0824C57.6506 34.3541 58.4586 33.7294 59.3606 33.2084C60.2626 32.6875 61.0416 32.4005 61.7314 32.3209C62.4212 32.2437 62.9639 32.3691 63.3594 32.6971C63.755 33.0251 63.9527 33.5533 63.9527 34.2841C63.9527 35.0149 63.8177 35.6757 63.5475 36.3077C63.2774 36.9396 62.9277 37.528 62.5032 38.0707C62.0763 38.6134 61.6253 39.1295 61.1478 39.6143L60.7353 40.0388C60.5086 40.2679 60.3494 40.485 60.2554 40.6876C60.1613 40.8902 60.1155 41.141 60.1155 41.4352V42.1395L58.0823 43.3116V43.314ZM59.1363 46.8426C58.7094 47.0886 58.35 47.1537 58.0558 47.0403C57.7591 46.927 57.612 46.6472 57.612 46.201C57.612 45.7548 57.7591 45.3086 58.0558 44.86C58.35 44.4114 58.7118 44.0641 59.1363 43.8181C59.5873 43.5576 59.9587 43.4829 60.2457 43.5938C60.5351 43.7048 60.6799 43.9845 60.6799 44.4283C60.6799 44.8721 60.5351 45.3207 60.2457 45.7717C59.9587 46.2227 59.5873 46.5773 59.1363 46.8402V46.8426Z" fill="white"/>
<path d="M52.6511 50.5332C51.1123 49.5516 50.1669 47.5787 50.1669 44.8026C50.1669 39.0335 54.2453 32.003 59.2788 29.0967C61.6907 27.7051 63.883 27.5146 65.511 28.3274L63.2005 26.996C61.5363 25.9011 59.1606 25.9855 56.5221 27.5097C51.491 30.416 47.4102 37.4465 47.4102 43.2157C47.4102 46.2377 48.4762 48.1503 50.3188 49.185C50.3502 49.2043 52.6511 50.5332 52.6511 50.5332Z" fill="#C795E3" stroke="#091A23" stroke-width="0.5" stroke-linecap="round" stroke-linejoin="round"/>
<path d="M52.1651 5.7608C52.1651 9.54256 49.4903 14.154 46.1909 16.0594C42.8915 17.9647 40.2168 16.4428 40.2168 12.6611C40.2168 8.87931 42.8915 4.26787 46.1909 2.36251C49.4903 0.457161 52.1651 1.97903 52.1651 5.7608Z" fill="#C795E3" stroke="#091A23" stroke-width="0.5" stroke-linecap="round" stroke-linejoin="round"/>
<path d="M45.4066 11.681V11.1697C45.4066 10.7814 45.4838 10.4196 45.6357 10.0892C45.7877 9.75873 46.0482 9.40178 46.4196 9.01589L46.6897 8.73852C47.0852 8.34057 47.394 7.96673 47.6158 7.61943C47.8377 7.27212 47.9487 6.90311 47.9487 6.51481C47.9487 6.23021 47.8739 6.03485 47.7268 5.92632C47.5797 5.81778 47.3771 5.78402 47.1214 5.82502C46.8658 5.86602 46.5739 5.98179 46.2459 6.17233C45.9179 6.36286 45.614 6.59199 45.3391 6.8597C45.0617 7.12741 44.8422 7.42407 44.6782 7.74485C44.5142 8.06803 44.4322 8.39845 44.4322 8.73852V9.07859L43.125 9.8335V9.49343C43.125 8.94112 43.2625 8.38881 43.5398 7.83167C43.8148 7.27454 44.1886 6.7584 44.6565 6.28086C45.1244 5.80331 45.655 5.3933 46.2483 5.05082C46.8416 4.70834 47.3505 4.52021 47.804 4.46957C48.2574 4.41892 48.6119 4.50092 48.8724 4.71799C49.1305 4.93264 49.2607 5.27994 49.2607 5.75749C49.2607 6.2278 49.1715 6.66916 48.9954 7.084C48.8194 7.49884 48.5902 7.88473 48.3105 8.23927C48.0307 8.59623 47.734 8.93388 47.4229 9.24983L47.1528 9.5272C47.0032 9.67914 46.8995 9.81903 46.8368 9.95168C46.7765 10.0843 46.7452 10.2483 46.7452 10.4437V10.9068L45.4114 11.6761L45.4066 11.681ZM46.0988 13.9939C45.819 14.1555 45.5827 14.1989 45.3897 14.1242C45.1968 14.0494 45.1003 13.8661 45.1003 13.5743C45.1003 13.2824 45.1968 12.9906 45.3897 12.6939C45.5827 12.3997 45.819 12.173 46.0988 12.0114C46.3955 11.8402 46.6391 11.7919 46.8272 11.8643C47.0177 11.9366 47.1118 12.1199 47.1118 12.4118C47.1118 12.7036 47.0177 12.9978 46.8272 13.2945C46.6391 13.5887 46.3955 13.8227 46.0988 13.9939Z" fill="white"/>
<path d="M41.847 16.4161C40.8389 15.7722 40.2166 14.477 40.2166 12.6585C40.2166 8.8767 42.8914 4.26527 46.1908 2.35991C47.7729 1.44582 49.2104 1.32282 50.2788 1.85584L48.7642 0.982751C47.674 0.264023 46.116 0.319495 44.3843 1.318C41.0849 3.22335 38.4102 7.83479 38.4102 11.6166C38.4102 13.5967 39.1096 14.8532 40.3179 15.531C40.3372 15.543 41.847 16.4137 41.847 16.4137V16.4161Z" fill="#C795E3" stroke="#091A23" stroke-width="0.5" stroke-linecap="round" stroke-linejoin="round"/>
<path d="M77.1853 21.3053C77.1853 25.8757 73.9535 27.716 69.9667 25.4127C65.9799 23.1118 62.748 17.538 62.748 12.9676C62.748 8.39712 65.9799 6.55688 69.9667 8.86019C73.9535 11.1635 77.1853 16.7348 77.1853 21.3053Z" fill="#C795E3" stroke="#091A23" stroke-width="0.5" stroke-linecap="round" stroke-linejoin="round"/>
<path d="M69.017 19.0307V18.4133C69.017 17.943 69.1086 17.615 69.2943 17.4268C69.4776 17.2387 69.7936 17.1712 70.2398 17.2242L70.5678 17.2677C71.0453 17.3376 71.4192 17.3183 71.6869 17.2074C71.9546 17.0988 72.0896 16.807 72.0896 16.3367C72.0896 15.9942 72.0004 15.6517 71.8195 15.3141C71.641 14.9764 71.3974 14.6532 71.0887 14.3493C70.78 14.0454 70.4279 13.7753 70.0299 13.5462C69.632 13.3171 69.2678 13.1723 68.935 13.1121C68.6021 13.0518 68.3344 13.1024 68.1366 13.2616C67.9365 13.4208 67.8376 13.7054 67.8376 14.1178V14.5302L66.2578 13.6185V13.2061C66.2578 12.5404 66.4242 12.0629 66.7571 11.7759C67.0899 11.4889 67.5409 11.3828 68.1053 11.4599C68.6721 11.5371 69.3136 11.7831 70.0275 12.1956C70.7318 12.6032 71.3589 13.0928 71.9063 13.662C72.4538 14.2336 72.8831 14.8293 73.1967 15.4491C73.5102 16.0714 73.667 16.6719 73.667 17.2484C73.667 17.8176 73.5609 18.2276 73.3462 18.4808C73.1316 18.7341 72.8566 18.8812 72.5189 18.9222C72.1813 18.9632 71.8219 18.9559 71.4457 18.9053L71.1177 18.8643C70.9392 18.8402 70.8114 18.8643 70.7366 18.9391C70.6618 19.0138 70.6257 19.1682 70.6257 19.4045V19.9641L69.0145 19.0355L69.017 19.0307ZM69.8515 22.7884C69.5138 22.593 69.2268 22.3156 68.9953 21.9563C68.7613 21.5945 68.6455 21.24 68.6455 20.8878C68.6455 20.5357 68.7613 20.3162 68.9953 20.2294C69.2292 20.1426 69.5138 20.198 69.8515 20.3934C70.2084 20.6008 70.5027 20.8806 70.7318 21.2327C70.9609 21.5848 71.0743 21.937 71.0743 22.2915C71.0743 22.6436 70.9609 22.8679 70.7318 22.9596C70.5027 23.0537 70.2108 22.9958 69.8515 22.7884Z" fill="white"/>
<path d="M79.0854 20.2062C79.0854 15.6358 75.8536 10.0644 71.8668 7.7611C69.8167 6.57689 67.9669 6.49006 66.6524 7.30526L64.8652 8.33512C66.1725 7.59468 67.9741 7.71045 69.9663 8.8609C73.953 11.1618 77.1849 16.7356 77.1849 21.306C77.1849 23.5008 76.4372 25.0636 75.2217 25.8427L77.0378 24.7983H77.0354C78.304 24.0386 79.0879 22.454 79.0879 20.2062H79.0854Z" fill="#C795E3" stroke="#091A23" stroke-width="0.5" stroke-linecap="round" stroke-linejoin="round"/>
<path d="M74.9316 26.0075L74.9442 26C74.9392 26 74.9367 26.005 74.9316 26.0075Z" fill="#80DBFF" stroke="#091A23" stroke-width="0.5" stroke-linecap="round" stroke-linejoin="round"/>
</svg>
