<svg width="104" height="130" viewBox="0 0 104 130" fill="none" xmlns="http://www.w3.org/2000/svg">
<g clip-path="url(#clip0_405_13621)">
<path d="M52.3161 65.8461L0.880859 95.7473V30.7003L52.3161 0.966797" stroke="#091A23" stroke-width="0.7" stroke-linecap="round" stroke-linejoin="round" stroke-dasharray="4 4"/>
<path d="M103.593 95.7458V30.6988L52.3145 0.957031V65.8391L103.593 95.7458Z" fill="none" stroke="#091A23" stroke-width="0.7" stroke-linecap="round" stroke-linejoin="round" stroke-dasharray="4 4"/>
<path d="M30.8835 98.162L26.6704 100.617L22.3555 98.1043L26.5712 95.6523L30.8835 98.162Z" fill="white" stroke="#B9C2C6" stroke-width="0.7" stroke-linecap="round" stroke-linejoin="round"/>
<path d="M39.4128 98.1438L35.1309 100.634L30.8848 98.1631L35.1639 95.6699L39.4128 98.1438Z" fill="white" stroke="#B9C2C6" stroke-width="0.7" stroke-linecap="round" stroke-linejoin="round"/>
<path d="M39.4019 103.122L35.1889 105.577L30.918 103.089L35.131 100.635L39.4019 103.122Z" fill="white" stroke="#B9C2C6" stroke-width="0.7" stroke-linecap="round" stroke-linejoin="round"/>
<path d="M44.8849 104.975L44.7967 105.027C44.1382 105.412 43.3226 105.409 42.664 105.027L42.5263 104.948C41.1293 104.134 41.1293 102.119 42.5263 101.305L43.678 100.635L44.8821 101.336C46.2791 102.149 46.2791 104.164 44.8821 104.978L44.8849 104.975Z" fill="#BFEDFF" stroke="#B9C2C6" stroke-width="0.7" stroke-linecap="round" stroke-linejoin="round"/>
<path d="M47.9621 108.105L43.7491 110.559L39.5195 108.096L43.7298 105.645L47.9621 108.105Z" fill="white" stroke="#B9C2C6" stroke-width="0.7" stroke-linecap="round" stroke-linejoin="round"/>
<path d="M53.3248 114.876L53.3083 114.887C52.6498 115.272 51.8341 115.272 51.1756 114.887L51.1591 114.876C49.7621 114.062 49.7621 112.048 51.1591 111.231L51.1756 111.22C51.8341 110.835 52.6498 110.835 53.3083 111.22L53.3248 111.231C54.7218 112.045 54.7218 114.06 53.3248 114.876Z" fill="#DCFF1E" stroke="#B9C2C6" stroke-width="0.7" stroke-linecap="round" stroke-linejoin="round"/>
<path d="M35.1636 95.6698L30.8845 98.1629L26.5723 95.6533L30.8514 93.1602L35.1636 95.6698Z" fill="white" stroke="#B9C2C6" stroke-width="0.7" stroke-linecap="round" stroke-linejoin="round"/>
<path d="M43.6397 95.6801L39.4129 98.143L35.1641 95.6691L39.3936 93.209L43.6397 95.6801Z" fill="white" stroke="#B9C2C6" stroke-width="0.7" stroke-linecap="round" stroke-linejoin="round"/>
<path d="M43.6809 100.627L39.4017 103.121L35.1309 100.633L39.4128 98.1426L43.6809 100.627Z" fill="white" stroke="#B9C2C6" stroke-width="0.7" stroke-linecap="round" stroke-linejoin="round"/>
<path d="M52.2407 100.689L48.0112 103.152L43.6797 100.629L47.9092 98.166L52.2407 100.689Z" fill="white" stroke="#B9C2C6" stroke-width="0.7" stroke-linecap="round" stroke-linejoin="round"/>
<path d="M52.2419 105.615L47.9628 108.106L43.7305 105.645L48.0124 103.152L52.2419 105.615Z" fill="white" stroke="#B9C2C6" stroke-width="0.7" stroke-linecap="round" stroke-linejoin="round"/>
<path d="M39.3933 93.2085L35.1638 95.6686L30.8516 93.159L35.0811 90.6934L39.3933 93.2085Z" fill="white" stroke="#B9C2C6" stroke-width="0.7" stroke-linecap="round" stroke-linejoin="round"/>
<path d="M47.9098 98.1646L43.6802 100.627L39.4121 98.1426L43.6389 95.6797L47.9098 98.1646Z" fill="white" stroke="#B9C2C6" stroke-width="0.7" stroke-linecap="round" stroke-linejoin="round"/>
<path d="M56.4708 103.152L52.2413 105.615L48.0117 103.152L52.2413 100.689L56.4708 103.152Z" fill="white" stroke="#B9C2C6" stroke-width="0.7" stroke-linecap="round" stroke-linejoin="round"/>
<path d="M52.2411 95.6439L47.9096 98.1645L43.6387 95.6796L47.9729 93.1562L52.2411 95.6439Z" fill="white" stroke="#B9C2C6" stroke-width="0.7" stroke-linecap="round" stroke-linejoin="round"/>
<path d="M52.2411 80.7016L47.9289 83.2112L43.6855 80.7429L47.9978 78.2305L52.2411 80.7016Z" fill="white" stroke="#B9C2C6" stroke-width="0.7" stroke-linecap="round" stroke-linejoin="round"/>
<path d="M56.4847 78.2309L52.2414 80.7021L47.998 78.2309L52.2414 75.7598L56.4847 78.2309Z" fill="white" stroke="#B9C2C6" stroke-width="0.7" stroke-linecap="round" stroke-linejoin="round"/>
<path d="M47.9729 93.1575L43.6387 95.6809L39.3926 93.2097L43.7268 90.6836L47.9729 93.1575Z" fill="white" stroke="#B9C2C6" stroke-width="0.7" stroke-linecap="round" stroke-linejoin="round"/>
<path d="M52.2408 90.6731L47.9727 93.158L43.7266 90.6841L47.9947 88.1992L52.2408 90.6731Z" fill="white" stroke="#B9C2C6" stroke-width="0.7" stroke-linecap="round" stroke-linejoin="round"/>
<path d="M56.4883 88.1977L52.2422 90.6716L47.9961 88.1977L52.2422 85.7266L56.4883 88.1977Z" fill="white" stroke="#B9C2C6" stroke-width="0.7" stroke-linecap="round" stroke-linejoin="round"/>
<path d="M60.8005 85.6868L56.4883 88.1992L52.2422 85.728L56.5572 83.2129L60.8005 85.6868Z" fill="white" stroke="#B9C2C6" stroke-width="0.7" stroke-linecap="round" stroke-linejoin="round"/>
<path d="M65.0433 83.2153L60.8 85.6864L56.5566 83.2125L60.8 80.7441L65.0433 83.2153Z" fill="white" stroke="#B9C2C6" stroke-width="0.7" stroke-linecap="round" stroke-linejoin="round"/>
<path d="M60.8446 95.6796L56.5737 98.1645L52.2422 95.6439L56.5103 93.1562L60.8446 95.6796Z" fill="white" stroke="#B9C2C6" stroke-width="0.7" stroke-linecap="round" stroke-linejoin="round"/>
<path d="M65.0901 93.207L60.844 95.6809L56.5098 93.1575L60.7586 90.6836L65.0901 93.207Z" fill="white" stroke="#B9C2C6" stroke-width="0.7" stroke-linecap="round" stroke-linejoin="round"/>
<path d="M69.4015 90.6944L65.0893 93.2068L60.7578 90.6835L65.07 88.1738L69.4015 90.6944Z" fill="white" stroke="#B9C2C6" stroke-width="0.7" stroke-linecap="round" stroke-linejoin="round"/>
<path d="M73.6479 88.2238L69.4018 90.6949L65.0703 88.1743L69.3136 85.7031L73.6479 88.2238Z" fill="white" stroke="#B9C2C6" stroke-width="0.7" stroke-linecap="round" stroke-linejoin="round"/>
<path d="M77.9144 95.6533L73.6022 98.1629L69.3203 95.6698L73.6325 93.1602L77.9144 95.6533Z" fill="white" stroke="#B9C2C6" stroke-width="0.7" stroke-linecap="round" stroke-linejoin="round"/>
<path d="M79.0302 95.0025L78.9806 95.0327C78.322 95.4176 77.5064 95.4176 76.8479 95.0327L76.7597 94.9805C75.3627 94.1669 75.36 92.152 76.7597 91.3384L76.8093 91.3082C77.4679 90.9233 78.2835 90.9233 78.942 91.3082L79.0302 91.3604C80.4299 92.174 80.4299 94.1889 79.0302 95.0053V95.0025Z" fill="#E3CAF1" stroke="#B9C2C6" stroke-width="0.7" stroke-linecap="round" stroke-linejoin="round"/>
<path d="M103.605 95.7461L99.279 98.2612L94.9199 95.7241L99.2459 93.209L103.605 95.7461Z" fill="white" stroke="#B9C2C6" stroke-width="0.7" stroke-linecap="round" stroke-linejoin="round"/>
<path d="M60.7647 70.7991L56.4387 73.317L52.2422 70.8733L56.5682 68.3555L60.7647 70.7991Z" fill="white" stroke="#B9C2C6" stroke-width="0.7" stroke-linecap="round" stroke-linejoin="round"/>
<path d="M56.5974 123.118L52.2411 125.652L47.8848 123.118L52.2411 120.578L56.5974 123.118Z" fill="white" stroke="#B9C2C6" stroke-width="0.7" stroke-linecap="round" stroke-linejoin="round"/>
<path d="M60.9548 120.578L56.5985 123.118L52.2422 120.578L56.5985 118.041L60.9548 120.578Z" fill="white" stroke="#B9C2C6" stroke-width="0.7" stroke-linecap="round" stroke-linejoin="round"/>
<path d="M65.167 118.127L60.954 120.579L56.5977 118.042L60.8107 115.59L65.167 118.127Z" fill="white" stroke="#B9C2C6" stroke-width="0.7" stroke-linecap="round" stroke-linejoin="round"/>
<path d="M69.4488 115.635L65.1669 118.128L60.8105 115.591L65.0897 113.098L69.4488 115.635Z" fill="white" stroke="#B9C2C6" stroke-width="0.7" stroke-linecap="round" stroke-linejoin="round"/>
<path d="M73.6785 113.172L69.4489 115.635L65.0898 113.098L69.3222 110.635L73.6785 113.172Z" fill="white" stroke="#B9C2C6" stroke-width="0.7" stroke-linecap="round" stroke-linejoin="round"/>
<path d="M78.0101 110.65L73.6786 113.171L69.3223 110.634L73.651 108.113L78.0101 110.65Z" fill="white" stroke="#B9C2C6" stroke-width="0.7" stroke-linecap="round" stroke-linejoin="round"/>
<path d="M79.1545 109.986L79.0774 110.03C78.4188 110.415 77.6032 110.415 76.9447 110.03L76.7821 109.934C75.3851 109.12 75.3851 107.105 76.7821 106.292L76.8593 106.248C77.5178 105.863 78.3334 105.863 78.992 106.248L79.1545 106.344C80.5515 107.157 80.5515 109.172 79.1545 109.986Z" fill="#E3CAF1" stroke="#B9C2C6" stroke-width="0.7" stroke-linecap="round" stroke-linejoin="round"/>
<path d="M86.527 105.689L82.2809 108.163L77.9219 105.626L82.1707 103.152L86.527 105.689Z" fill="white" stroke="#B9C2C6" stroke-width="0.7" stroke-linecap="round" stroke-linejoin="round"/>
<path d="M90.8384 103.18L86.5262 105.689L82.1699 103.152L86.4794 100.643L90.8384 103.18Z" fill="white" stroke="#B9C2C6" stroke-width="0.7" stroke-linecap="round" stroke-linejoin="round"/>
<path d="M95.0829 100.705L90.8395 103.179L86.4805 100.642L90.7266 98.168L95.0829 100.705Z" fill="white" stroke="#B9C2C6" stroke-width="0.7" stroke-linecap="round" stroke-linejoin="round"/>
<path d="M99.2794 98.2617L95.0829 100.705L90.7266 98.1683L94.9203 95.7246L99.2794 98.2617Z" fill="white" stroke="#B9C2C6" stroke-width="0.7" stroke-linecap="round" stroke-linejoin="round"/>
<path d="M52.2408 120.578L47.8844 123.118L43.5254 120.578L47.8844 118.041L52.2408 120.578Z" fill="white" stroke="#B9C2C6" stroke-width="0.7" stroke-linecap="round" stroke-linejoin="round"/>
<path d="M44.756 119.864L44.5934 119.957C43.9349 120.342 43.1193 120.342 42.4608 119.957L42.4442 119.946C41.0472 119.132 41.0472 117.118 42.4442 116.304L42.6068 116.21C43.2653 115.826 44.0809 115.826 44.7395 116.21L44.756 116.221C46.153 117.035 46.153 119.05 44.756 119.866V119.864Z" fill="#E3CAF1" stroke="#B9C2C6" stroke-width="0.7" stroke-linecap="round" stroke-linejoin="round"/>
<path d="M99.2459 93.209L94.92 95.7241L90.5664 93.1898L94.8896 90.6719L99.2459 93.209Z" fill="white" stroke="#B9C2C6" stroke-width="0.7" stroke-linecap="round" stroke-linejoin="round"/>
<path d="M86.3704 95.6316L82.1271 98.1055L77.9141 95.6536L82.1602 93.1797L86.3704 95.6316Z" fill="white" stroke="#B9C2C6" stroke-width="0.7" stroke-linecap="round" stroke-linejoin="round"/>
<path d="M82.1268 98.1043L77.8118 100.614L73.6016 98.162L77.9138 95.6523L82.1268 98.1043Z" fill="white" stroke="#B9C2C6" stroke-width="0.7" stroke-linecap="round" stroke-linejoin="round"/>
<path d="M77.8118 100.614L73.5657 103.088L69.3555 100.636L73.6016 98.1621L77.8118 100.614Z" fill="white" stroke="#B9C2C6" stroke-width="0.7" stroke-linecap="round" stroke-linejoin="round"/>
<path d="M73.5651 103.089L69.2943 105.576L65.084 103.124L69.3521 100.637H69.3549L73.5651 103.089Z" fill="white" stroke="#B9C2C6" stroke-width="0.7" stroke-linecap="round" stroke-linejoin="round"/>
<path d="M66.1668 107.397L66.029 107.476C65.3705 107.861 64.5549 107.861 63.8963 107.476L63.8798 107.468C62.4828 106.655 62.4828 104.637 63.8798 103.823L64.0175 103.744C64.6761 103.362 65.4917 103.362 66.1502 103.744L66.1668 103.752C67.5638 104.565 67.5638 106.58 66.1668 107.394V107.397Z" fill="#BFEDFF" stroke="#B9C2C6" stroke-width="0.7" stroke-linecap="round" stroke-linejoin="round"/>
<path d="M64.9633 108.096L60.7337 110.559L56.5234 108.107L60.753 105.645L64.9633 108.096Z" fill="white" stroke="#B9C2C6" stroke-width="0.7" stroke-linecap="round" stroke-linejoin="round"/>
<path d="M60.7344 110.559L56.4552 113.052L52.2422 110.601L56.5241 108.107L60.7344 110.559Z" fill="white" stroke="#B9C2C6" stroke-width="0.7" stroke-linecap="round" stroke-linejoin="round"/>
<path d="M43.6726 115.591L39.319 118.128L35.0371 115.635L39.3907 113.098L43.6726 115.591Z" fill="white" stroke="#B9C2C6" stroke-width="0.7" stroke-linecap="round" stroke-linejoin="round"/>
<path d="M94.8898 90.6715L90.5665 93.1893L86.3535 90.7374L90.6768 88.2168L94.8898 90.6715Z" fill="white" stroke="#B9C2C6" stroke-width="0.7" stroke-linecap="round" stroke-linejoin="round"/>
<path d="M56.524 108.108L52.242 110.602L47.9629 108.106L52.242 105.615L56.524 108.108Z" fill="white" stroke="#B9C2C6" stroke-width="0.7" stroke-linecap="round" stroke-linejoin="round"/>
<path d="M60.7537 105.645L56.5241 108.108L52.2422 105.615L56.4717 103.152L60.7537 105.645Z" fill="white" stroke="#B9C2C6" stroke-width="0.7" stroke-linecap="round" stroke-linejoin="round"/>
<path d="M65.0841 103.125L60.7526 105.645L56.4707 103.152L60.8022 100.629L65.0841 103.125Z" fill="white" stroke="#B9C2C6" stroke-width="0.7" stroke-linecap="round" stroke-linejoin="round"/>
<path d="M67.3358 101.812L65.0846 103.123L60.8027 100.627L65.0709 98.1426L69.3528 100.636L67.3358 101.812Z" fill="white" stroke="#B9C2C6" stroke-width="0.7" stroke-linecap="round" stroke-linejoin="round"/>
<path d="M73.6011 98.1631L69.355 100.637H69.3522L65.0703 98.1438L69.3192 95.6699L73.6011 98.1631Z" fill="white" stroke="#B9C2C6" stroke-width="0.7" stroke-linecap="round" stroke-linejoin="round"/>
<path d="M39.3897 113.098L35.0362 115.635H35.0334L30.8066 113.172L35.1602 110.635L39.3897 113.098Z" fill="white" stroke="#B9C2C6" stroke-width="0.7" stroke-linecap="round" stroke-linejoin="round"/>
<path d="M90.6774 88.217L86.3542 90.7376L82.0723 88.2417L86.3955 85.7266L90.6774 88.217Z" fill="white" stroke="#B9C2C6" stroke-width="0.7" stroke-linecap="round" stroke-linejoin="round"/>
<path d="M77.8752 90.6856L73.6319 93.1595L69.4023 90.6938L73.6484 88.2227L77.8752 90.6856Z" fill="white" stroke="#B9C2C6" stroke-width="0.7" stroke-linecap="round" stroke-linejoin="round"/>
<path d="M73.6316 93.159L69.3194 95.6686L65.0898 93.2057L69.4021 90.6934L73.6316 93.159Z" fill="white" stroke="#B9C2C6" stroke-width="0.7" stroke-linecap="round" stroke-linejoin="round"/>
<path d="M69.3194 95.6699L65.0706 98.1438L60.8438 95.6809L65.0898 93.207L69.3194 95.6699Z" fill="white" stroke="#B9C2C6" stroke-width="0.7" stroke-linecap="round" stroke-linejoin="round"/>
<path d="M65.07 98.1426L60.8018 100.627L56.5723 98.1646L60.8432 95.6797L65.07 98.1426Z" fill="white" stroke="#B9C2C6" stroke-width="0.7" stroke-linecap="round" stroke-linejoin="round"/>
<path d="M60.8033 100.629L56.4717 103.152L52.2422 100.689L56.5737 98.166L60.8033 100.629Z" fill="white" stroke="#B9C2C6" stroke-width="0.7" stroke-linecap="round" stroke-linejoin="round"/>
<path d="M35.1616 110.634L30.8081 113.171L26.4766 110.648L30.8329 108.113L35.1616 110.634Z" fill="white" stroke="#B9C2C6" stroke-width="0.7" stroke-linecap="round" stroke-linejoin="round"/>
<path d="M86.3946 85.7274L82.0714 88.2425L77.8418 85.7823L82.1678 83.2617L86.3946 85.7274Z" fill="white" stroke="#B9C2C6" stroke-width="0.7" stroke-linecap="round" stroke-linejoin="round"/>
<path d="M56.5732 98.1652L52.2417 100.689L47.9102 98.1652L52.2417 95.6445L56.5732 98.1652Z" fill="white" stroke="#B9C2C6" stroke-width="0.7" stroke-linecap="round" stroke-linejoin="round"/>
<path d="M30.8311 108.113L26.4748 110.647H26.4721L22.2012 108.162L26.5602 105.625L30.8311 108.113Z" fill="white" stroke="#B9C2C6" stroke-width="0.7" stroke-linecap="round" stroke-linejoin="round"/>
<path d="M82.1673 83.2609L77.8413 85.7815L73.5098 83.2581L77.833 80.7402L82.1673 83.2609Z" fill="white" stroke="#B9C2C6" stroke-width="0.7" stroke-linecap="round" stroke-linejoin="round"/>
<path d="M77.9134 85.7687L73.5874 88.2893L69.2559 85.7632L73.5819 83.248L77.9134 85.7687Z" fill="white" stroke="#B9C2C6" stroke-width="0.7" stroke-linecap="round" stroke-linejoin="round"/>
<path d="M69.315 85.7025L65.0717 88.1736L60.8008 85.686L65.0441 83.2148L69.315 85.7025Z" fill="white" stroke="#B9C2C6" stroke-width="0.7" stroke-linecap="round" stroke-linejoin="round"/>
<path d="M65.0714 88.1732L60.7592 90.6828L56.4883 88.1979L60.8005 85.6855L65.0714 88.1732Z" fill="white" stroke="#B9C2C6" stroke-width="0.7" stroke-linecap="round" stroke-linejoin="round"/>
<path d="M60.7592 90.6841L56.5103 93.158L52.2422 90.6731L56.4883 88.1992L60.7592 90.6841Z" fill="white" stroke="#B9C2C6" stroke-width="0.7" stroke-linecap="round" stroke-linejoin="round"/>
<path d="M56.5089 93.1568L52.2408 95.6444L47.9727 93.1568L52.2408 90.6719L56.5089 93.1568Z" fill="white" stroke="#B9C2C6" stroke-width="0.7" stroke-linecap="round" stroke-linejoin="round"/>
<path d="M26.5602 105.626L22.2012 108.163L17.9551 105.689L22.3141 103.152L26.5602 105.626Z" fill="white" stroke="#B9C2C6" stroke-width="0.7" stroke-linecap="round" stroke-linejoin="round"/>
<path d="M77.8344 80.7408L73.5111 83.2586L69.2402 80.771L73.5662 78.2559L77.8344 80.7408Z" fill="white" stroke="#B9C2C6" stroke-width="0.7" stroke-linecap="round" stroke-linejoin="round"/>
<path d="M22.3158 103.152L17.9567 105.689L13.6445 103.18L18.0036 100.643L22.3158 103.152Z" fill="white" stroke="#B9C2C6" stroke-width="0.7" stroke-linecap="round" stroke-linejoin="round"/>
<path d="M73.5654 78.2551L69.2394 80.7703L64.9961 78.2991L69.3193 75.7812L73.5654 78.2551Z" fill="white" stroke="#B9C2C6" stroke-width="0.7" stroke-linecap="round" stroke-linejoin="round"/>
<path d="M60.8005 80.7429L56.5572 83.2112L52.2422 80.7016L56.4855 78.2305L60.8005 80.7429Z" fill="white" stroke="#B9C2C6" stroke-width="0.7" stroke-linecap="round" stroke-linejoin="round"/>
<path d="M56.5569 83.2128L52.2419 85.7279L47.9297 83.2128L52.2419 80.7031L56.5569 83.2128Z" fill="white" stroke="#B9C2C6" stroke-width="0.7" stroke-linecap="round" stroke-linejoin="round"/>
<path d="M52.2407 85.728L47.9947 88.1992L43.6797 85.6868L47.9285 83.2129L52.2407 85.728Z" fill="white" stroke="#B9C2C6" stroke-width="0.7" stroke-linecap="round" stroke-linejoin="round"/>
<path d="M18.0028 100.642L13.6437 103.179L9.40039 100.705L13.7595 98.168L18.0028 100.642Z" fill="white" stroke="#B9C2C6" stroke-width="0.7" stroke-linecap="round" stroke-linejoin="round"/>
<path d="M69.3199 75.7819L64.9966 78.2998L60.6816 75.7874L65.0049 73.2695L69.3199 75.7819Z" fill="white" stroke="#B9C2C6" stroke-width="0.7" stroke-linecap="round" stroke-linejoin="round"/>
<path d="M13.7587 98.1683L9.39962 100.705L5.20312 98.2617L9.56218 95.7246L13.7587 98.1683Z" fill="white" stroke="#B9C2C6" stroke-width="0.7" stroke-linecap="round" stroke-linejoin="round"/>
<path d="M65.0041 73.27L60.6808 75.7879L56.4375 73.3167L60.7635 70.7988L65.0041 73.27Z" fill="white" stroke="#B9C2C6" stroke-width="0.7" stroke-linecap="round" stroke-linejoin="round"/>
<path d="M56.5672 68.355L52.2412 70.8729L47.918 68.355L52.2412 65.8398L56.5672 68.355Z" fill="white" stroke="#B9C2C6" stroke-width="0.7" stroke-linecap="round" stroke-linejoin="round"/>
<path d="M90.5669 93.1902L86.3704 95.6311L82.1602 93.1792L86.3539 90.7383L90.5669 93.1902Z" fill="white" stroke="#B9C2C6" stroke-width="0.7" stroke-linecap="round" stroke-linejoin="round"/>
<path d="M86.3534 90.7381L82.1597 93.179L77.875 90.6858L82.0715 88.2422L86.3534 90.7381Z" fill="white" stroke="#B9C2C6" stroke-width="0.7" stroke-linecap="round" stroke-linejoin="round"/>
<path d="M82.0717 88.2414L77.8752 90.6851L73.6484 88.2222L77.8422 85.7812L82.0717 88.2414Z" fill="white" stroke="#B9C2C6" stroke-width="0.7" stroke-linecap="round" stroke-linejoin="round"/>
<path d="M73.5103 83.2591L69.3139 85.7028L65.043 83.2151L69.2395 80.7715L73.5103 83.2591Z" fill="white" stroke="#B9C2C6" stroke-width="0.7" stroke-linecap="round" stroke-linejoin="round"/>
<path d="M69.2406 80.7719L65.0441 83.2156L60.8008 80.7444L64.9973 78.3008L69.2406 80.7719Z" fill="white" stroke="#B9C2C6" stroke-width="0.7" stroke-linecap="round" stroke-linejoin="round"/>
<path d="M64.9958 78.2995L60.7993 80.7432L56.4844 78.2308L60.6809 75.7871L64.9958 78.2995Z" fill="white" stroke="#B9C2C6" stroke-width="0.7" stroke-linecap="round" stroke-linejoin="round"/>
<path d="M60.682 75.7876L56.4855 78.2312L52.2422 75.7601L56.4387 73.3164L60.682 75.7876Z" fill="white" stroke="#B9C2C6" stroke-width="0.7" stroke-linecap="round" stroke-linejoin="round"/>
<path d="M56.4379 73.3167L52.2414 75.7604L48.0449 73.3167L52.2414 70.873L56.4379 73.3167Z" fill="white" stroke="#B9C2C6" stroke-width="0.7" stroke-linecap="round" stroke-linejoin="round"/>
<path d="M52.2424 70.8733L48.0459 73.317L43.7227 70.7991L47.9191 68.3555L52.2424 70.8733Z" fill="white" stroke="#B9C2C6" stroke-width="0.7" stroke-linecap="round" stroke-linejoin="round"/>
<path d="M52.2426 75.7601L47.9992 78.2312L43.8027 75.7876L48.0461 73.3164L52.2426 75.7601Z" fill="white" stroke="#B9C2C6" stroke-width="0.7" stroke-linecap="round" stroke-linejoin="round"/>
<path d="M48.0451 73.3167L43.8018 75.7879L39.4785 73.27L43.7218 70.7988L48.0451 73.3167Z" fill="white" stroke="#B9C2C6" stroke-width="0.7" stroke-linecap="round" stroke-linejoin="round"/>
<path d="M47.9989 78.2308L43.6867 80.7432L39.4902 78.2995L43.8025 75.7871L47.9989 78.2308Z" fill="white" stroke="#B9C2C6" stroke-width="0.7" stroke-linecap="round" stroke-linejoin="round"/>
<path d="M43.8015 75.7874L39.4893 78.2998L35.166 75.7819L39.4782 73.2695L43.8015 75.7874Z" fill="white" stroke="#B9C2C6" stroke-width="0.7" stroke-linecap="round" stroke-linejoin="round"/>
<path d="M43.6856 80.7444L39.4367 83.2156L35.2402 80.7719L39.4891 78.3008L43.6856 80.7444Z" fill="white" stroke="#B9C2C6" stroke-width="0.7" stroke-linecap="round" stroke-linejoin="round"/>
<path d="M39.49 78.2991L35.2412 80.7703L30.918 78.2551L35.1668 75.7812L39.49 78.2991Z" fill="white" stroke="#B9C2C6" stroke-width="0.7" stroke-linecap="round" stroke-linejoin="round"/>
<path d="M39.4373 83.2151L35.1691 85.7028L30.9727 83.2591L35.2408 80.7715L39.4373 83.2151Z" fill="white" stroke="#B9C2C6" stroke-width="0.7" stroke-linecap="round" stroke-linejoin="round"/>
<path d="M35.2406 80.771L30.9725 83.2586L26.6465 80.7408L30.9174 78.2559L35.2406 80.771Z" fill="white" stroke="#B9C2C6" stroke-width="0.7" stroke-linecap="round" stroke-linejoin="round"/>
<path d="M35.1686 85.7034L30.8371 88.2268L26.6406 85.7831L30.9721 83.2598L35.1686 85.7034Z" fill="white" stroke="#B9C2C6" stroke-width="0.7" stroke-linecap="round" stroke-linejoin="round"/>
<path d="M30.9731 83.2581L26.6416 85.7815L22.3184 83.2609L26.6471 80.7402L30.9731 83.2581Z" fill="white" stroke="#B9C2C6" stroke-width="0.7" stroke-linecap="round" stroke-linejoin="round"/>
<path d="M30.8382 88.2249L26.6086 90.6851L22.4121 88.2414L26.6417 85.7812L30.8382 88.2249Z" fill="white" stroke="#B9C2C6" stroke-width="0.7" stroke-linecap="round" stroke-linejoin="round"/>
<path d="M26.6407 85.7823L22.4111 88.2425L18.0879 85.7274L22.3174 83.2617L26.6407 85.7823Z" fill="white" stroke="#B9C2C6" stroke-width="0.7" stroke-linecap="round" stroke-linejoin="round"/>
<path d="M26.6073 90.6858L22.3282 93.179H22.3254L18.1289 90.7353L22.4108 88.2422L26.6073 90.6858Z" fill="white" stroke="#B9C2C6" stroke-width="0.7" stroke-linecap="round" stroke-linejoin="round"/>
<path d="M22.4118 88.2417L18.1299 90.7348L13.8066 88.217L18.0885 85.7266L22.4118 88.2417Z" fill="white" stroke="#B9C2C6" stroke-width="0.7" stroke-linecap="round" stroke-linejoin="round"/>
<path d="M18.1579 90.7171L13.876 93.2102L9.55273 90.6924L13.8346 88.1992L18.1579 90.7171Z" fill="white" stroke="#B9C2C6" stroke-width="0.7" stroke-linecap="round" stroke-linejoin="round"/>
<path d="M22.3255 93.18L18.1125 95.6346L13.916 93.191L18.129 90.7363L22.3255 93.18Z" fill="white" stroke="#B9C2C6" stroke-width="0.7" stroke-linecap="round" stroke-linejoin="round"/>
<path d="M15.0031 92.5575L14.9838 92.5685C14.3252 92.9533 13.5096 92.9533 12.8511 92.5685L12.7216 92.4915C11.3246 91.6779 11.3246 89.663 12.7216 88.8494L12.7409 88.8384C13.3994 88.4563 14.215 88.4535 14.8735 88.8384L15.0031 88.9153C16.4 89.729 16.4028 91.7438 15.0031 92.5575Z" fill="#BFEDFF" stroke="#B9C2C6" stroke-width="0.7" stroke-linecap="round" stroke-linejoin="round"/>
<path d="M47.9297 83.2125L43.6808 85.6864L39.4375 83.2153L43.6863 80.7441L47.9297 83.2125Z" fill="white" stroke="#B9C2C6" stroke-width="0.7" stroke-linecap="round" stroke-linejoin="round"/>
<path d="M47.9952 88.1979L43.7271 90.6828L39.4121 88.1732L43.6802 85.6855L47.9952 88.1979Z" fill="white" stroke="#B9C2C6" stroke-width="0.7" stroke-linecap="round" stroke-linejoin="round"/>
<path d="M43.6814 85.686L39.4133 88.1736L35.1699 85.7025L39.4381 83.2148L43.6814 85.686Z" fill="white" stroke="#B9C2C6" stroke-width="0.7" stroke-linecap="round" stroke-linejoin="round"/>
<path d="M43.7266 90.6835L39.3923 93.2096L35.0801 90.6944L39.4116 88.1738L43.7266 90.6835Z" fill="white" stroke="#B9C2C6" stroke-width="0.7" stroke-linecap="round" stroke-linejoin="round"/>
<path d="M39.4127 88.1743L35.0812 90.6949L30.8379 88.2265L35.1694 85.7031L39.4127 88.1743Z" fill="white" stroke="#B9C2C6" stroke-width="0.7" stroke-linecap="round" stroke-linejoin="round"/>
<path d="M35.0803 90.695L30.8508 93.1606L26.6074 90.6867L30.837 88.2266L35.0803 90.695Z" fill="white" stroke="#B9C2C6" stroke-width="0.7" stroke-linecap="round" stroke-linejoin="round"/>
<path d="M27.7236 94.9805L27.6382 95.03C26.9797 95.4148 26.1641 95.4148 25.5055 95.03L25.4559 94.9998C24.059 94.1861 24.059 92.1713 25.4559 91.3576L25.5414 91.3082C26.1999 90.9233 27.0155 90.9233 27.6741 91.3082L27.7236 91.3384C29.1206 92.152 29.1206 94.1669 27.7236 94.9805Z" fill="#DCFF1E" stroke="#B9C2C6" stroke-width="0.7" stroke-linecap="round" stroke-linejoin="round"/>
<path d="M35.131 100.633L30.918 103.088L26.6719 100.617L30.8849 98.1621L35.131 100.633Z" fill="white" stroke="#B9C2C6" stroke-width="0.7" stroke-linecap="round" stroke-linejoin="round"/>
<path d="M43.7293 105.644L39.519 108.096L35.1875 105.576L39.4005 103.121L43.7293 105.644Z" fill="white" stroke="#B9C2C6" stroke-width="0.7" stroke-linecap="round" stroke-linejoin="round"/>
<path d="M52.2422 110.601L48.0319 113.053L43.75 110.56L47.963 108.105L52.2422 110.601Z" fill="white" stroke="#B9C2C6" stroke-width="0.7" stroke-linecap="round" stroke-linejoin="round"/>
<path d="M91.7925 97.5464C91.1339 97.9312 90.3183 97.9312 89.6598 97.5464L89.5 97.4529C88.1002 96.6393 88.103 94.6217 89.5 93.808C90.1585 93.426 90.9713 93.426 91.6299 93.808L91.7897 93.9015C93.1867 94.7151 93.1894 96.73 91.7897 97.5464H91.7925Z" fill="#DCFF1E" stroke="#B9C2C6" stroke-width="0.7" stroke-linecap="round" stroke-linejoin="round"/>
<path d="M90.7266 98.168L86.4805 100.642L82.127 98.1048L86.3703 95.6309L90.7266 98.168Z" fill="white" stroke="#B9C2C6" stroke-width="0.7" stroke-linecap="round" stroke-linejoin="round"/>
<path d="M83.2645 102.514C82.5867 102.907 81.7491 102.907 81.074 102.514L81.0299 102.487C79.5916 101.651 79.5916 99.5785 81.0299 98.7401C81.7077 98.347 82.5454 98.347 83.2205 98.7401L83.2645 98.7676C84.7001 99.6032 84.7001 101.676 83.2645 102.511V102.514Z" fill="#BFEDFF" stroke="#B9C2C6" stroke-width="0.7" stroke-linecap="round" stroke-linejoin="round"/>
<path d="M82.1715 103.152L77.9227 105.626L73.5664 103.089L77.8125 100.615L82.1715 103.152Z" fill="white" stroke="#B9C2C6" stroke-width="0.7" stroke-linecap="round" stroke-linejoin="round"/>
<path d="M77.9221 105.625L73.6512 108.113L69.2949 105.576L73.5658 103.088L77.9221 105.625Z" fill="white" stroke="#B9C2C6" stroke-width="0.7" stroke-linecap="round" stroke-linejoin="round"/>
<path d="M73.6507 108.113L69.3219 110.634L64.9629 108.097L69.2944 105.576L73.6507 108.113Z" fill="white" stroke="#B9C2C6" stroke-width="0.7" stroke-linecap="round" stroke-linejoin="round"/>
<path d="M69.323 110.635L65.0907 113.098L60.7344 110.561L64.9639 108.098L69.323 110.635Z" fill="white" stroke="#B9C2C6" stroke-width="0.7" stroke-linecap="round" stroke-linejoin="round"/>
<path d="M65.0905 113.098L60.8114 115.591L56.4551 113.054L60.7342 110.561L65.0905 113.098Z" fill="white" stroke="#B9C2C6" stroke-width="0.7" stroke-linecap="round" stroke-linejoin="round"/>
<path d="M60.8115 115.59L56.5985 118.042L52.2422 115.505L56.4552 113.053L60.8115 115.59Z" fill="white" stroke="#B9C2C6" stroke-width="0.7" stroke-linecap="round" stroke-linejoin="round"/>
<path d="M56.5974 118.041L52.2411 120.578L47.8848 118.041L52.2411 115.504L56.5974 118.041Z" fill="white" stroke="#B9C2C6" stroke-width="0.7" stroke-linecap="round" stroke-linejoin="round"/>
<path d="M52.2412 115.505L47.8849 118.042L43.6719 115.59L48.0309 113.053L52.2412 115.505Z" fill="white" stroke="#B9C2C6" stroke-width="0.7" stroke-linecap="round" stroke-linejoin="round"/>
<path d="M48.0316 113.054L43.6725 115.591L39.3906 113.098L43.7497 110.561L48.0316 113.054Z" fill="white" stroke="#B9C2C6" stroke-width="0.7" stroke-linecap="round" stroke-linejoin="round"/>
<path d="M43.7488 110.561L39.3897 113.098L35.1602 110.635L39.5192 108.098L43.7488 110.561Z" fill="white" stroke="#B9C2C6" stroke-width="0.7" stroke-linecap="round" stroke-linejoin="round"/>
<path d="M39.5198 108.097L35.1608 110.634L30.832 108.113L35.1883 105.576L39.5198 108.097Z" fill="white" stroke="#B9C2C6" stroke-width="0.7" stroke-linecap="round" stroke-linejoin="round"/>
<path d="M32.0037 107.429L31.9183 107.479C31.2488 107.869 30.4166 107.869 29.7471 107.479C28.3225 106.649 28.3253 104.598 29.7471 103.768L29.8325 103.719C30.502 103.328 31.3342 103.328 32.0037 103.719C33.4283 104.549 33.4255 106.599 32.0037 107.429Z" fill="#DCFF1E" stroke="#B9C2C6" stroke-width="0.7" stroke-linecap="round" stroke-linejoin="round"/>
<path d="M30.9168 103.088L26.5605 105.625L22.3145 103.152L26.6708 100.617L30.9168 103.088Z" fill="white" stroke="#B9C2C6" stroke-width="0.7" stroke-linecap="round" stroke-linejoin="round"/>
<path d="M23.5418 102.438L23.382 102.531C22.7234 102.913 21.9078 102.913 21.2493 102.531L21.1308 102.462C19.7338 101.649 19.7311 99.634 21.1308 98.8176L21.2906 98.7242C21.9492 98.3393 22.7648 98.3393 23.4233 98.7242L23.5418 98.7929C24.9388 99.6065 24.9388 101.621 23.5418 102.438Z" fill="#E3CAF1" stroke="#B9C2C6" stroke-width="0.7" stroke-linecap="round" stroke-linejoin="round"/>
<path d="M18.1125 95.6331L13.759 98.1675L9.5625 95.7238L13.916 93.1895L18.1125 95.6331Z" fill="white" stroke="#B9C2C6" stroke-width="0.7" stroke-linecap="round" stroke-linejoin="round"/>
<path d="M13.9159 93.1898L9.56232 95.7241L5.23633 93.209L9.59263 90.6719L13.9159 93.1898Z" fill="white" stroke="#B9C2C6" stroke-width="0.7" stroke-linecap="round" stroke-linejoin="round"/>
<path d="M9.56316 95.7241L5.2041 98.2612L0.880859 95.7461L5.23716 93.209L9.56316 95.7241Z" fill="white" stroke="#B9C2C6" stroke-width="0.7" stroke-linecap="round" stroke-linejoin="round"/>
<path d="M26.5724 95.6536L22.3566 98.1055L18.1133 95.6343L22.3263 93.1797H22.3291L26.5724 95.6536Z" fill="white" stroke="#B9C2C6" stroke-width="0.7" stroke-linecap="round" stroke-linejoin="round"/>
<path d="M22.3452 98.1028L18.0109 100.643L13.7676 98.1715L18.0991 95.6289H18.1018L22.3452 98.1028Z" fill="white" stroke="#B9C2C6" stroke-width="0.7" stroke-linecap="round" stroke-linejoin="round"/>
<path d="M0.880859 95.7461V99.7758L52.2417 129.682V125.653L0.880859 95.7461Z" fill="#E8EBEC" stroke="#B9C2C6" stroke-width="0.7" stroke-linecap="round" stroke-linejoin="round"/>
<path d="M103.593 95.7461V99.7758L52.2402 129.682V125.653L103.593 95.7461Z" fill="#B9C2C6" stroke="#B9C2C6" stroke-width="0.7" stroke-linecap="round" stroke-linejoin="round"/>
<path d="M52.3365 42.209L1.25391 71.9095L52.2621 101.61L103.262 71.9095L52.3365 42.209ZM52.375 81.2278C42.0946 81.2278 34.3409 77.2201 34.3409 71.9095C34.3409 66.5989 42.0946 62.5911 52.375 62.5911C62.6555 62.5911 70.4092 66.5989 70.4092 71.9095C70.4092 77.2201 62.6555 81.2278 52.375 81.2278Z" fill="#F0F2F2" stroke="#B9C2C6" stroke-width="0.7" stroke-linecap="round" stroke-linejoin="round"/>
<path d="M52.3365 29.6113L1.25391 59.3118L52.2621 89.0124L103.262 59.3118L52.3365 29.6113ZM52.375 68.6329C42.0946 68.6329 34.3409 64.6252 34.3409 59.3146C34.3409 54.004 42.0946 49.9962 52.375 49.9962C62.6555 49.9962 70.4092 54.004 70.4092 59.3146C70.4092 64.6252 62.6555 68.6329 52.375 68.6329Z" fill="#F0F2F2" stroke="#B9C2C6" stroke-width="0.7" stroke-linecap="round" stroke-linejoin="round"/>
<path d="M56.1825 57.4765C59.296 57.4765 61.8201 54.9586 61.8201 51.8525C61.8201 48.7465 59.296 46.2285 56.1825 46.2285C53.0689 46.2285 50.5449 48.7465 50.5449 51.8525C50.5449 54.9586 53.0689 57.4765 56.1825 57.4765Z" fill="#C795E3" stroke="#091A23" stroke-width="0.7" stroke-linecap="round" stroke-linejoin="round"/>
<path d="M55.454 48.966C58.0303 48.3201 60.6314 49.5598 61.8135 51.8028C61.8107 51.3657 61.7611 50.9204 61.6482 50.4779C60.8904 47.4652 57.8264 45.6373 54.8065 46.3932C51.7866 47.1491 49.9542 50.2057 50.7119 53.2184C50.8249 53.6609 50.9902 54.076 51.1941 54.4636C51.1721 51.9265 52.8777 49.6092 55.4513 48.9633L55.454 48.966Z" fill="#E3CAF1"/>
<path d="M56.1825 57.4765C59.296 57.4765 61.8201 54.9586 61.8201 51.8525C61.8201 48.7465 59.296 46.2285 56.1825 46.2285C53.0689 46.2285 50.5449 48.7465 50.5449 51.8525C50.5449 54.9586 53.0689 57.4765 56.1825 57.4765Z" stroke="#091A23" stroke-width="0.7" stroke-linecap="round" stroke-linejoin="round"/>
<path d="M52.7801 17.3301L1.25391 46.6155L51.8956 76.1044L103.339 46.8189L52.7801 17.3301ZM52.0086 55.8679C41.7998 55.8679 34.1039 51.8904 34.1039 46.6155C34.1039 41.3406 41.8025 37.3631 52.0086 37.3631C62.2146 37.3631 69.9132 41.3406 69.9132 46.6155C69.9132 51.8904 62.2146 55.8679 52.0086 55.8679Z" fill="#F0F2F2" stroke="#B9C2C6" stroke-width="0.7" stroke-linecap="round" stroke-linejoin="round"/>
<path d="M45.8652 52.4164V43.252" stroke="#091A23" stroke-width="0.7" stroke-linecap="round" stroke-linejoin="round"/>
<path d="M45.8649 41.7981C49.0058 41.7981 51.5521 39.258 51.5521 36.1246C51.5521 32.9913 49.0058 30.4512 45.8649 30.4512C42.724 30.4512 40.1777 32.9913 40.1777 36.1246C40.1777 39.258 42.724 41.7981 45.8649 41.7981Z" fill="#DCFF1E" stroke="#091A23" stroke-width="0.7" stroke-linecap="round" stroke-linejoin="round"/>
<path d="M45.1334 33.2178C47.7317 32.5664 50.3549 33.8143 51.548 36.0793C51.5452 35.6368 51.4956 35.1915 51.3826 34.7434C50.6166 31.706 47.5278 29.8616 44.4803 30.6258C41.4356 31.3899 39.5867 34.4713 40.3527 37.5114C40.4657 37.9595 40.6338 38.3773 40.8404 38.7676C40.8184 36.2085 42.5378 33.8721 45.1361 33.2206L45.1334 33.2178Z" fill="#F3FFB1"/>
<path d="M45.8649 41.7981C49.0058 41.7981 51.5521 39.258 51.5521 36.1246C51.5521 32.9913 49.0058 30.4512 45.8649 30.4512C42.724 30.4512 40.1777 32.9913 40.1777 36.1246C40.1777 39.258 42.724 41.7981 45.8649 41.7981Z" stroke="#091A23" stroke-width="0.7" stroke-linecap="round" stroke-linejoin="round"/>
<path d="M61.9648 31.6719V41.452" stroke="#091A23" stroke-width="0.7" stroke-linecap="round" stroke-linejoin="round"/>
<path d="M61.9641 29.985C65.0746 29.985 67.5962 27.4696 67.5962 24.3665C67.5962 21.2635 65.0746 18.748 61.9641 18.748C58.8536 18.748 56.332 21.2635 56.332 24.3665C56.332 27.4696 58.8536 29.985 61.9641 29.985Z" fill="#80DBFF" stroke="#091A23" stroke-width="0.7" stroke-linecap="round" stroke-linejoin="round"/>
<path d="M61.2397 21.4849C63.8133 20.839 66.4116 22.0759 67.5937 24.3189C67.5909 23.8819 67.5413 23.4393 67.4284 22.994C66.6706 19.9841 63.6094 18.1589 60.5922 18.9148C57.575 19.6708 55.7454 22.7246 56.5031 25.7346C56.6161 26.1771 56.7814 26.5922 56.9853 26.9797C56.9633 24.4454 58.6661 22.1309 61.2397 21.4849Z" fill="#BFEDFF"/>
<path d="M61.9641 29.985C65.0746 29.985 67.5962 27.4696 67.5962 24.3665C67.5962 21.2635 65.0746 18.748 61.9641 18.748C58.8536 18.748 56.332 21.2635 56.332 24.3665C56.332 27.4696 58.8536 29.985 61.9641 29.985Z" stroke="#091A23" stroke-width="0.7" stroke-linecap="round" stroke-linejoin="round"/>
</g>
<defs>
<clipPath id="clip0_405_13621">
<rect width="103" height="129" fill="white" transform="translate(0.742188 0.820312)"/>
</clipPath>
</defs>
</svg>
