<svg width="417" height="377" viewBox="0 0 417 377" fill="none" xmlns="http://www.w3.org/2000/svg">
<path d="M174.544 329.693C92.6303 329.693 30.8541 297.843 30.8541 255.61C30.8541 213.376 92.6303 181.526 174.544 181.526C256.458 181.526 318.234 213.376 318.234 255.61C318.234 297.843 256.458 329.693 174.544 329.693Z" fill="#E6F8FF"/>
<path d="M271.642 290.103C272.185 290.103 272.735 289.968 273.237 289.675L286.101 282.252C287.625 281.371 288.143 279.426 287.266 277.91C286.381 276.393 284.435 275.877 282.903 276.751L270.039 284.173C268.516 285.054 267.998 286.999 268.875 288.516C269.465 289.532 270.534 290.095 271.634 290.095L271.642 290.103Z" fill="#8A99A0" stroke="#091A23" stroke-linecap="round" stroke-linejoin="round"/>
<path d="M74.2312 312.371C42.3302 330.678 2.48596 307.759 2.48596 271.106" stroke="#091A23" stroke-linecap="round" stroke-linejoin="round"/>
<path d="M256.753 207.636L123.574 284.054" stroke="#091A23" stroke-linecap="round" stroke-linejoin="round"/>
<path d="M413.897 178.073C413.897 151.121 384.596 134.275 361.141 147.731L330.03 165.585" stroke="#091A23" stroke-linecap="round" stroke-linejoin="round"/>
<path d="M287.449 277.87L360.901 235.501" stroke="#091A23" stroke-linecap="round" stroke-linejoin="round"/>
<path d="M370.862 363.569C383.264 356.44 384.612 345.659 373.869 339.491L193.166 235.637C182.424 229.469 163.666 230.239 151.264 237.368C138.863 244.496 137.515 255.277 148.258 261.446L328.961 365.299C339.703 371.468 358.461 370.698 370.862 363.569Z" fill="#E8EBEC" stroke="#091A23" stroke-linecap="round" stroke-linejoin="round"/>
<path d="M330.547 360.742C340.381 366.395 356.315 366.426 366.077 360.814C375.839 355.209 375.775 346.048 365.949 340.396L191.587 240.194C181.753 234.541 165.819 234.509 156.057 240.122C146.295 245.727 146.359 254.888 156.184 260.54L330.547 360.742Z" fill="white"/>
<path d="M341.505 346.691L226.893 280.546" stroke="#091A23" stroke-linecap="round" stroke-linejoin="round"/>
<path d="M381.094 349.271L381.11 349.255V349.452C381.11 349.389 381.102 349.334 381.094 349.271Z" fill="#5C707A" stroke="#091A23" stroke-linecap="round" stroke-linejoin="round"/>
<path d="M141.031 257.468V251.53C141.239 255.253 143.623 258.786 148.265 261.453L328.968 365.307C339.711 371.475 358.468 370.705 370.87 363.577C377.417 359.814 380.879 355.035 381.11 350.454V356.487C381.357 361.362 377.888 366.569 370.87 370.602C358.468 377.731 339.711 378.501 328.968 372.333L148.265 268.479C143.177 265.55 140.808 261.588 141.031 257.476V257.468Z" fill="#5C707A" stroke="#091A23" stroke-linecap="round" stroke-linejoin="round"/>
<path opacity="0.5" d="M119.268 130.083H229.829L194.387 250.616H194.331C192.824 256.483 185.367 260.095 174.552 260.095C163.738 260.095 156.345 256.07 154.766 250.616L119.268 130.083Z" fill="#C795E3"/>
<path d="M174.544 167.062C136.112 167.062 107.122 151.169 107.122 130.084C107.122 109.007 136.104 93.1055 174.544 93.1055C212.977 93.1055 241.967 108.999 241.967 130.084C241.967 151.161 212.985 167.062 174.544 167.062Z" fill="#5C707A" stroke="#091A23" stroke-linecap="round" stroke-linejoin="round"/>
<path d="M174.545 158.592C143.027 158.592 119.268 146.334 119.268 130.092C119.268 113.841 143.034 101.592 174.545 101.592C206.063 101.592 229.821 113.849 229.821 130.092C229.821 146.342 206.055 158.592 174.545 158.592Z" fill="white" stroke="#091A23" stroke-linecap="round" stroke-linejoin="round"/>
<path d="M178.516 110.476C146.998 110.476 123.24 122.733 123.24 138.976C123.24 139.769 123.312 140.547 123.423 141.325C120.736 137.912 119.268 134.125 119.268 130.084C119.268 113.834 143.034 101.584 174.544 101.584C206.055 101.584 227.468 112.675 229.637 127.742C221.511 117.406 202.203 110.476 178.516 110.476Z" fill="#F1FFA5"/>
<path d="M241.967 130.084C241.967 151.161 212.985 167.062 174.552 167.062C136.12 167.062 107.13 151.169 107.13 130.084V161.958C107.13 183.035 136.112 198.936 174.552 198.936C212.985 198.936 241.967 183.043 241.967 161.958V130.084Z" fill="#8A99A0" stroke="#091A23" stroke-linecap="round" stroke-linejoin="round"/>
<path d="M174.544 158.592C143.026 158.592 119.268 146.334 119.268 130.092C119.268 113.841 143.034 101.592 174.544 101.592C206.063 101.592 229.821 113.849 229.821 130.092C229.821 146.342 206.055 158.592 174.544 158.592Z" stroke="#091A23" stroke-linecap="round" stroke-linejoin="round"/>
<path d="M46.1426 232.556C46.1426 239.645 40.3685 241.907 33.2466 237.605C26.1247 233.302 20.3507 224.069 20.3507 216.98C20.3507 209.891 26.1247 207.628 33.2466 211.931C40.3685 216.234 46.1426 225.466 46.1426 232.556Z" fill="#E8EBEC" stroke="#091A23" stroke-linecap="round" stroke-linejoin="round"/>
<path d="M114.833 194.919C114.833 187.806 109.043 178.549 101.898 174.23C98.0376 171.896 94.5764 171.507 92.2077 172.746L92.1918 172.754C92.0482 172.833 91.9047 172.913 91.7691 173L23.6526 210.367L23.6765 210.407C26.0372 209.232 29.4426 209.645 33.2388 211.939C40.3607 216.242 46.1348 225.475 46.1348 232.564C46.1348 235.644 45.0422 237.811 43.2238 238.931L43.2398 238.946L111.835 201.349C111.835 201.349 111.883 201.325 111.907 201.309L112.018 201.246H112.01C113.773 200.103 114.833 197.959 114.833 194.927V194.919Z" fill="#5C707A" stroke="#091A23" stroke-linecap="round" stroke-linejoin="round"/>
<path d="M174.544 158.592C143.026 158.592 119.268 146.334 119.268 130.092C119.268 113.841 143.034 101.592 174.544 101.592C206.063 101.592 229.821 113.849 229.821 130.092C229.821 146.342 206.055 158.592 174.544 158.592Z" stroke="#091A23" stroke-linecap="round" stroke-linejoin="round"/>
<path d="M174.544 158.592C143.026 158.592 119.268 146.334 119.268 130.092C119.268 113.841 143.034 101.592 174.544 101.592C206.063 101.592 229.821 113.849 229.821 130.092C229.821 146.342 206.055 158.592 174.544 158.592Z" stroke="#091A23" stroke-linecap="round" stroke-linejoin="round"/>
<path d="M130.967 179.542C130.967 175.136 127.378 169.404 122.96 166.728C120.568 165.284 118.43 165.038 116.963 165.808H116.955C116.867 165.855 116.779 165.903 116.692 165.958L102.113 174.342C108.19 178.105 113.254 185.432 114.53 191.894L129.125 183.511C129.125 183.511 129.157 183.495 129.173 183.487L129.245 183.447C130.337 182.741 130.991 181.407 130.991 179.534L130.967 179.542Z" fill="#2D4754" stroke="#091A23" stroke-linecap="round" stroke-linejoin="round"/>
<path d="M182.639 3.42163L158.801 90.6836L180.238 78.2754L178.883 127.646L200.432 46.616L179.919 58.5557L182.639 3.42163Z" fill="#DCFF1E" stroke="#091A23" stroke-linecap="round" stroke-linejoin="round"/>
<path d="M195.383 43.6868L200.432 46.6161L179.919 58.5559L180.31 52.4114L195.383 43.6868Z" fill="#F1FFA5" stroke="#091A23" stroke-linecap="round" stroke-linejoin="round"/>
<path d="M182.639 3.42143L177.583 0.5L153.745 87.7619L158.801 90.6834L182.639 3.42143Z" fill="#F1FFA5" stroke="#091A23" stroke-linecap="round" stroke-linejoin="round"/>
<path d="M173.834 124.717L178.883 127.646L180.238 78.2754L174.871 81.3238L173.834 124.717Z" fill="#F1FFA5" stroke="#091A23" stroke-linecap="round" stroke-linejoin="round"/>
<path d="M159.885 242.321C151.934 246.885 151.982 254.324 159.989 258.92C167.996 263.517 180.932 263.549 188.875 258.984C196.819 254.419 196.779 246.981 188.772 242.384C180.765 237.78 167.829 237.756 159.885 242.321Z" fill="#C795E3"/>
<path d="M176.744 250.315C177.78 253.101 174.678 255.856 169.829 256.467C164.98 257.078 160.203 255.324 159.174 252.537C158.145 249.751 161.24 246.996 166.089 246.385C170.938 245.774 175.715 247.528 176.744 250.315Z" stroke="white" stroke-width="2" stroke-linecap="round" stroke-linejoin="round"/>
<path d="M188.252 248.885L177.15 250.267" stroke="white" stroke-width="2" stroke-linecap="round" stroke-linejoin="round"/>
<path d="M169.966 130.575L160.236 136.466" stroke="#091A23" stroke-linecap="round" stroke-linejoin="round"/>
<path d="M158.753 121.383L170.102 127.702" stroke="#091A23" stroke-linecap="round" stroke-linejoin="round"/>
<path d="M345.159 247.115C343.754 247.115 342.615 245.982 342.615 244.583C342.615 243.184 343.754 242.051 345.159 242.051C346.564 242.051 347.703 243.184 347.703 244.583C347.703 245.982 346.564 247.115 345.159 247.115Z" fill="#DCFF1E" stroke="#091A23" stroke-linecap="round" stroke-linejoin="round"/>
<path d="M35.3678 319.309C33.9627 319.309 32.8237 318.175 32.8237 316.777C32.8237 315.378 33.9627 314.244 35.3678 314.244C36.7728 314.244 37.9119 315.378 37.9119 316.777C37.9119 318.175 36.7728 319.309 35.3678 319.309Z" fill="#DCFF1E" stroke="#091A23" stroke-linecap="round" stroke-linejoin="round"/>
<path d="M378.376 145.643C376.971 145.643 375.831 144.509 375.831 143.111C375.831 141.712 376.971 140.578 378.376 140.578C379.781 140.578 380.92 141.712 380.92 143.111C380.92 144.509 379.781 145.643 378.376 145.643Z" fill="#DCFF1E" stroke="#091A23" stroke-linecap="round" stroke-linejoin="round"/>
<path d="M2.48635 271.106C2.48635 270.574 2.4943 270.05 2.51025 269.518" stroke="#091A23" stroke-linecap="round" stroke-linejoin="round"/>
<path d="M2.73315 266.303C4.24845 251.434 12.7181 238.017 25.7577 230.246L30.6943 227.3" stroke="#091A23" stroke-linecap="round" stroke-linejoin="round"/>
<path d="M32.0903 226.474L33.4541 225.657" stroke="#091A23" stroke-linecap="round" stroke-linejoin="round"/>
<path d="M74.2313 314.356C74.5662 314.356 74.9092 314.268 75.2282 314.094L124.571 285.784C125.528 285.237 125.855 284.022 125.305 283.077C124.754 282.125 123.534 281.799 122.577 282.347L73.2344 310.656C72.2773 311.204 71.9503 312.419 72.5006 313.363C72.8675 313.998 73.5374 314.356 74.2313 314.356Z" fill="#DCFF1E" stroke="#091A23" stroke-linecap="round" stroke-linejoin="round"/>
<path d="M256.761 209.621C257.096 209.621 257.439 209.533 257.758 209.359L331.034 167.316C331.991 166.768 332.318 165.553 331.768 164.609C331.218 163.656 329.998 163.33 329.041 163.878L255.764 205.921C254.807 206.469 254.48 207.684 255.03 208.628C255.397 209.264 256.067 209.621 256.761 209.621Z" fill="#DCFF1E" stroke="#091A23" stroke-linecap="round" stroke-linejoin="round"/>
<path d="M360.902 237.486C361.245 237.486 361.587 237.398 361.898 237.216L391.558 220.108C406.568 211.447 415.891 195.339 415.891 178.073C415.891 176.977 414.998 176.088 413.897 176.088C412.796 176.088 411.903 176.977 411.903 178.073C411.903 193.926 403.338 208.716 389.557 216.67L359.897 233.778C358.948 234.326 358.621 235.541 359.171 236.493C359.538 237.128 360.208 237.486 360.902 237.486Z" fill="#DCFF1E" stroke="#091A23" stroke-linecap="round" stroke-linejoin="round"/>
<path d="M29.777 223.244C29.777 223.903 29.9525 224.625 30.2556 225.348C30.2954 225.459 30.3513 225.562 30.3991 225.673C30.9016 226.753 31.6831 227.801 32.6083 228.587C32.704 228.666 32.7997 228.745 32.8954 228.825C33.1027 228.983 33.318 229.134 33.5414 229.269C35.6229 230.524 37.3057 229.865 37.3057 227.793C37.3057 227.356 37.2259 226.88 37.0824 226.403C37.0505 226.292 37.0186 226.181 36.9787 226.078C36.6039 224.99 35.91 223.887 35.0487 222.99C34.9689 222.902 34.8892 222.823 34.8015 222.744C34.4027 222.363 33.98 222.037 33.5414 221.767C31.4598 220.513 29.777 221.172 29.777 223.244Z" fill="#163341" stroke="#091A23" stroke-linecap="round" stroke-linejoin="round"/>
<path d="M0.500027 271.106C0.500027 272.21 1.38528 273.091 2.49384 273.091C3.60239 273.091 4.48764 272.21 4.48764 271.106C4.48764 255.149 13.0291 240.145 26.7864 231.945L32.4488 228.674L32.6083 228.587L36.9788 226.078C36.6039 224.99 35.9101 223.887 35.0487 222.99C34.969 222.902 34.8892 222.823 34.8015 222.744L30.2556 225.348L29.9526 225.522L24.7368 228.539C9.78319 237.454 0.500027 253.76 0.500027 271.106Z" fill="#DCFF1E" stroke="#091A23" stroke-linecap="round" stroke-linejoin="round"/>
</svg>
