<svg width="181" height="117" viewBox="0 0 181 117" fill="none" xmlns="http://www.w3.org/2000/svg">
<path d="M77.7715 18.3235C77.7715 14.5315 75.7496 11.0217 72.4688 9.12188L61.4207 2.7204C59.063 1.35465 56.1179 3.05611 56.1179 5.77999L50.0063 2.23972V66.1019L127.824 110.95V47.3248L77.7792 18.3235H77.7715Z" fill="#DCFF1E" stroke="#091A23" stroke-linecap="round" stroke-linejoin="round"/>
<path d="M64.3101 23.8844L106.848 48.5642V57.5876L64.3101 32.9461V23.8844Z" fill="#F1FFA5"/>
<path d="M57.401 3.0789L52.9528 0.5L50 2.23199L56.1115 5.77226C56.1115 4.64303 56.6304 3.71219 57.3934 3.0789H57.401Z" fill="#DCFF1E" stroke="#091A23" stroke-linecap="round" stroke-linejoin="round"/>
<path d="M77.0327 14.4568C77.5058 15.6776 77.7805 16.9747 77.7805 18.3251L127.825 47.3264V110.944L130.778 109.212V45.5944L77.0327 14.4568Z" fill="#DCFF1E" stroke="#091A23" stroke-linecap="round" stroke-linejoin="round"/>
<path d="M143.837 53.566C143.837 61.3108 137.558 63.9261 129.813 59.4059C122.068 54.8857 115.788 44.9414 115.788 37.1965C115.788 29.4517 122.068 26.8365 129.813 31.3566C137.558 35.8768 143.837 45.8212 143.837 53.566Z" fill="#80DBFF" stroke="#091A23" stroke-linecap="round" stroke-linejoin="round"/>
<path d="M126.782 52.4078C126.746 52.3877 126.71 52.3675 126.674 52.3473C126.165 52.0325 125.709 51.4836 125.483 50.9025L122.67 43.7469L125.269 43.8599L126.992 48.2428L135.137 41.0469L137.518 44.0092L127.973 52.4401C127.699 52.6823 127.255 52.6702 126.782 52.4119V52.4078Z" fill="white"/>
<path d="M132.509 29.8003C128.118 27.2375 124.195 26.9711 121.624 28.6299L119.501 29.8568C122.064 28.5734 125.736 28.9729 129.813 31.3541C137.557 35.8743 143.837 45.8186 143.837 53.5635C143.837 56.9415 142.643 59.3428 140.653 60.602L142.816 59.3469C145.121 58.1926 146.533 55.6783 146.533 52.0097C146.533 44.2648 140.253 34.3204 132.509 29.8003Z" fill="white" stroke="#091A23" stroke-linecap="round" stroke-linejoin="round"/>
<path d="M40.1314 23.0613C40.1314 19.2693 38.1095 15.7595 34.8286 13.8597L23.7805 7.45819C21.4229 6.09244 18.4778 7.79391 18.4778 10.5178L12.3662 6.97751V70.8397L90.1835 115.688V52.0626L40.139 23.0613H40.1314Z" fill="#C795E3" stroke="#091A23" stroke-linecap="round" stroke-linejoin="round"/>
<path d="M26.6699 28.625L69.2081 53.3048V62.3282L26.6699 37.6867V28.625Z" fill="#E3CAF1"/>
<path d="M19.7604 7.81328L15.3121 5.23438L12.3594 6.96636L18.4709 10.5066C18.4709 9.37741 18.9898 8.44656 19.7527 7.81328H19.7604Z" fill="#C795E3" stroke="#091A23" stroke-linecap="round" stroke-linejoin="round"/>
<path d="M39.3926 19.1953C39.8656 20.4161 40.1403 21.7132 40.1403 23.0637L90.1848 52.0649V115.683L93.1376 113.951V50.3329L39.3926 19.1953Z" fill="#C795E3" stroke="#091A23" stroke-linecap="round" stroke-linejoin="round"/>
</svg>
