<svg width="121" height="131" viewBox="0 0 121 131" fill="none" xmlns="http://www.w3.org/2000/svg">
    <g clip-path="url(#clip0_376_31574)">
        <path d="M71.7573 92.6035V130.303" stroke="#555555" stroke-linecap="round"
            stroke-linejoin="round" />
        <path
            d="M71.7573 126.26C72.3814 126.26 72.8874 125.754 72.8874 125.13C72.8874 124.506 72.3814 124 71.7573 124C71.1332 124 70.6272 124.506 70.6272 125.13C70.6272 125.754 71.1332 126.26 71.7573 126.26Z"
            fill="#DCFF1E" stroke="#091A23" stroke-linecap="round" stroke-linejoin="round" />
        <path d="M68.057 92.9895V123.318" stroke="#555555" stroke-linecap="round"
            stroke-linejoin="round" />
        <path
            d="M68.057 117.954C68.6811 117.954 69.1871 117.448 69.1871 116.824C69.1871 116.2 68.6811 115.694 68.057 115.694C67.4328 115.694 66.9269 116.2 66.9269 116.824C66.9269 117.448 67.4328 117.954 68.057 117.954Z"
            fill="#80DBFF" stroke="#091A23" stroke-linecap="round" stroke-linejoin="round" />
        <path
            d="M68.057 103.333C68.6811 103.333 69.1871 102.827 69.1871 102.203C69.1871 101.579 68.6811 101.073 68.057 101.073C67.4328 101.073 66.9269 101.579 66.9269 102.203C66.9269 102.827 67.4328 103.333 68.057 103.333Z"
            fill="#DCFF1E" stroke="#091A23" stroke-linecap="round" stroke-linejoin="round" />
        <path d="M77.963 95.0718V112.442" stroke="#555555" stroke-linecap="round"
            stroke-linejoin="round" />
        <path
            d="M77.963 109.904C78.5871 109.904 79.0931 109.398 79.0931 108.774C79.0931 108.15 78.5871 107.644 77.963 107.644C77.3389 107.644 76.8329 108.15 76.8329 108.774C76.8329 109.398 77.3389 109.904 77.963 109.904Z"
            fill="#C795E3" stroke="#091A23" stroke-linecap="round" stroke-linejoin="round" />
        <path d="M96.5068 94.0151V111.91" stroke="#555555" stroke-linecap="round"
            stroke-linejoin="round" />
        <path
            d="M96.5068 109.797C97.131 109.797 97.6369 109.291 97.6369 108.667C97.6369 108.043 97.131 107.537 96.5068 107.537C95.8827 107.537 95.3767 108.043 95.3767 108.667C95.3767 109.291 95.8827 109.797 96.5068 109.797Z"
            fill="#C795E3" stroke="#091A23" stroke-linecap="round" stroke-linejoin="round" />
        <path d="M87.0236 94.7703V120.261" stroke="#555555" stroke-linecap="round"
            stroke-linejoin="round" />
        <path
            d="M87.0602 102.093C87.6843 102.093 88.1903 101.587 88.1903 100.963C88.1903 100.339 87.6843 99.8335 87.0602 99.8335C86.436 99.8335 85.9301 100.339 85.9301 100.963C85.9301 101.587 86.436 102.093 87.0602 102.093Z"
            fill="#80DBFF" stroke="#091A23" stroke-linecap="round" stroke-linejoin="round" />
        <path d="M99.9423 93.5615V121.391" stroke="#555555" stroke-linecap="round"
            stroke-linejoin="round" />
        <path
            d="M99.9422 119.613C100.566 119.613 101.072 119.107 101.072 118.483C101.072 117.859 100.566 117.353 99.9422 117.353C99.3181 117.353 98.8121 117.859 98.8121 118.483C98.8121 119.107 99.3181 119.613 99.9422 119.613Z"
            fill="#DCFF1E" stroke="#091A23" stroke-linecap="round" stroke-linejoin="round" />
        <path
            d="M84.1349 79.1691C63.1984 79.1691 47.4108 70.4711 47.4108 58.9387C47.4108 47.4062 63.1984 38.7083 84.1349 38.7083C105.071 38.7083 120.859 47.4062 120.859 58.9387C120.859 70.4711 105.071 79.1691 84.1349 79.1691Z"
            fill="#2D4754" stroke="#091A23" stroke-linecap="round" stroke-linejoin="round" />
        <path
            d="M84.1349 74.5312C66.9692 74.5312 54.0251 67.8281 54.0251 58.9386C54.0251 50.049 66.9692 43.3459 84.1349 43.3459C101.301 43.3459 114.245 50.049 114.245 58.9386C114.245 67.8281 101.301 74.5312 84.1349 74.5312Z"
            fill="white" stroke="#091A23" stroke-linecap="round" stroke-linejoin="round" />
        <path
            d="M120.859 58.9387C120.859 70.4712 105.071 79.1691 84.1349 79.1691C63.1984 79.1691 47.4108 70.4712 47.4108 58.9387V76.3769C47.4108 87.9094 63.1984 96.6073 84.1349 96.6073C105.071 96.6073 120.859 87.9094 120.859 76.3769V58.9387Z"
            fill="#5C707A" stroke="#091A23" stroke-linecap="round" stroke-linejoin="round" />
        <path
            d="M83.9123 70.8825C70.7146 70.8825 59.8025 67.259 54.4733 61.7309C56.8744 69.1947 68.8208 74.5313 84.135 74.5313C99.4491 74.5313 112.142 68.8538 113.994 61.0237C108.938 66.9491 97.6652 70.8825 83.9123 70.8825Z"
            fill="#D8DDDF" />
        <path
            d="M40.3568 97.5539C40.3568 99.9573 38.4094 100.721 36.0055 99.2642C33.6016 97.8075 31.6542 94.6771 31.6542 92.2737C31.6542 89.8703 33.6016 89.1067 36.0055 90.5634C38.4094 92.0201 40.3568 95.1505 40.3568 97.5539Z"
            fill="#E8EBEC" stroke="#091A23" stroke-linecap="round" stroke-linejoin="round" />
        <path
            d="M60.3971 85.996C60.3971 83.587 58.4441 80.4482 56.0345 78.9886C54.7325 78.1997 53.5657 78.0645 52.7654 78.4843L52.7597 78.4871C52.7118 78.5125 52.6639 78.5406 52.616 78.5688L32.7701 90.0337L32.7786 90.0449C33.5762 89.6476 34.7232 89.7857 36.0026 90.5634C38.4066 92.0201 40.354 95.1504 40.354 97.5539C40.354 98.5992 39.9848 99.3318 39.3732 99.7093L39.3789 99.715L59.3854 88.1712C59.3854 88.1712 59.4023 88.1628 59.4107 88.1571L59.4502 88.1346C60.0448 87.7458 60.4027 87.0188 60.4027 85.9932L60.3971 85.996Z"
            fill="#163341" stroke="#091A23" stroke-linecap="round" stroke-linejoin="round" />
        <path
            d="M14.1925 115.001C14.1925 118.881 11.0474 120.117 7.16668 117.762C3.286 115.406 0.140869 110.357 0.140869 106.477C0.140869 102.598 3.286 101.361 7.16668 103.716C11.0474 106.069 14.1925 111.124 14.1925 115.001Z"
            fill="#E8EBEC" stroke="#091A23" stroke-linecap="round" stroke-linejoin="round" />
        <path
            d="M51.61 94.4067C51.61 90.5156 48.4564 85.4495 44.5644 83.0912C42.462 81.8148 40.5766 81.6007 39.2859 82.2797L39.2775 82.2854C39.1985 82.3276 39.1196 82.3699 39.0464 82.4178L1.94458 102.857L1.95867 102.876C3.24378 102.234 5.09816 102.459 7.16673 103.713C11.0474 106.066 14.1925 111.121 14.1925 114.998C14.1925 116.683 13.5979 117.869 12.6059 118.478L12.6143 118.489L49.9754 97.9203C49.9754 97.9203 50.0008 97.9062 50.0148 97.8977L50.0769 97.8611L50.0712 97.8555C51.0322 97.2356 51.61 96.0635 51.61 94.4039V94.4067Z"
            fill="#2D4754" stroke="#091A23" stroke-linecap="round" stroke-linejoin="round" />
        <path
            d="M84.1349 74.5312C66.9692 74.5312 54.0251 67.8281 54.0251 58.9386C54.0251 50.049 66.9692 43.3459 84.1349 43.3459C101.301 43.3459 114.245 50.049 114.245 58.9386C114.245 67.8281 101.301 74.5312 84.1349 74.5312Z"
            stroke="#091A23" stroke-linecap="round" stroke-linejoin="round" />
        <path
            d="M84.1349 74.5312C66.9692 74.5312 54.0251 67.8281 54.0251 58.9386C54.0251 50.049 66.9692 43.3459 84.1349 43.3459C101.301 43.3459 114.245 50.049 114.245 58.9386C114.245 67.8281 101.301 74.5312 84.1349 74.5312Z"
            stroke="#091A23" stroke-linecap="round" stroke-linejoin="round" />
        <path
            d="M76.0692 10.3293C70.461 10.3293 66.2336 8.14005 66.2336 5.2351C66.2336 2.33015 70.461 0.140869 76.0692 0.140869C81.6775 0.140869 85.9048 2.33015 85.9048 5.2351C85.9048 8.14005 81.6746 10.3293 76.0692 10.3293Z"
            fill="#80DBFF" stroke="#091A23" stroke-linecap="round" stroke-linejoin="round" />
        <path
            d="M76.0692 10.3293C70.461 10.3293 66.2336 8.14006 66.2336 5.23511V56.941C66.2336 59.846 70.4638 62.0352 76.0692 62.0352C81.6746 62.0352 85.9048 59.846 85.9048 56.941V5.23511C85.9048 8.14006 81.6746 10.3293 76.0692 10.3293Z"
            fill="#BFEDFF" stroke="#091A23" stroke-linecap="round" stroke-linejoin="round" />
        <path
            d="M91.7497 22.5889C86.1415 22.5889 81.9142 20.3996 81.9142 17.4946C81.9142 14.5897 86.1443 12.4004 91.7497 12.4004C97.358 12.4004 101.585 14.5897 101.585 17.4946C101.585 20.3996 97.3552 22.5889 91.7497 22.5889Z"
            fill="#DCFF1E" stroke="#091A23" stroke-linecap="round" stroke-linejoin="round" />
        <path
            d="M91.7497 22.5889C86.1415 22.5889 81.9142 20.3996 81.9142 17.4946V56.8707C81.9142 59.7756 86.1443 61.9649 91.7497 61.9649C97.3552 61.9649 101.585 59.7756 101.585 56.8707V17.4974C101.585 20.4024 97.3552 22.5917 91.7497 22.5917V22.5889Z"
            fill="#F1FFA5" stroke="#091A23" stroke-linecap="round" stroke-linejoin="round" />
        <path
            d="M84.5126 34.248C78.9043 34.248 74.677 32.0588 74.677 29.1538C74.677 26.2489 78.9071 24.0596 84.5126 24.0596C90.1208 24.0596 94.3481 26.2489 94.3481 29.1538C94.3481 32.0588 90.118 34.248 84.5126 34.248Z"
            fill="#C795E3" stroke="#091A23" stroke-linecap="round" stroke-linejoin="round" />
        <path
            d="M84.5126 34.248C78.9043 34.248 74.677 32.0588 74.677 29.1538V61.6943C74.677 64.5993 78.9071 66.7886 84.5126 66.7886C90.118 66.7886 94.3481 64.5993 94.3481 61.6943V29.1538C94.3481 32.0588 90.118 34.248 84.5126 34.248Z"
            fill="#E3CAF1" stroke="#091A23" stroke-linecap="round" stroke-linejoin="round" />
    </g>
    <defs>
        <clipPath id="clip0_376_31574">
            <rect width="121" height="130.444" fill="white" />
        </clipPath>
    </defs>
</svg>
