<svg width="140" height="140" viewBox="0 0 140 140" fill="none" xmlns="http://www.w3.org/2000/svg">
    <g clip-path="url(#clip0_672_4113)">
        <path fill-rule="evenodd" clip-rule="evenodd"
            d="M62.3906 116.954H62.3786L66.2393 126.743H66.2621C66.537 127.262 67.0295 127.75 67.7393 128.16C70.0576 129.5 73.8155 129.5 76.1333 128.16C76.8432 127.75 77.3356 127.262 77.611 126.743H77.6318L81.4913 116.954H81.4825C82.0512 115.196 81.1583 113.31 78.8037 111.95C75.011 109.758 68.8621 109.758 65.0694 111.95C62.7147 113.31 61.8218 115.196 62.3906 116.954Z"
            fill="#8A99A0" />
        <path
            d="M62.3784 116.954V116.754H62.0846L62.1926 117.027L62.3784 116.954ZM62.3904 116.954V117.154H62.6654L62.5807 116.892L62.3904 116.954ZM66.2391 126.743L66.0532 126.817L66.1032 126.943H66.2391V126.743ZM66.2619 126.743L66.4381 126.65L66.3818 126.543H66.2619V126.743ZM77.6108 126.743V126.543H77.4905L77.4342 126.65L77.6108 126.743ZM77.6316 126.743V126.943H77.7675L77.8175 126.817L77.6316 126.743ZM81.4911 116.954L81.6769 117.027L81.7849 116.754H81.4911V116.954ZM81.4823 116.954L81.292 116.892L81.2073 117.154H81.4823V116.954ZM62.3784 117.154H62.3904V116.754H62.3784V117.154ZM66.4249 126.67L62.5643 116.88L62.1926 117.027L66.0532 126.817L66.4249 126.67ZM66.2619 126.543H66.2391V126.943H66.2619V126.543ZM66.0852 126.837C66.3822 127.397 66.9058 127.91 67.6392 128.334L67.8391 127.987C67.1528 127.591 66.6915 127.127 66.4381 126.65L66.0852 126.837ZM67.6392 128.334C68.8359 129.025 70.3915 129.365 71.9364 129.365C73.4808 129.365 75.0364 129.025 76.2331 128.334L76.0332 127.987C74.9117 128.635 73.4292 128.965 71.9364 128.965C70.4431 128.965 68.9606 128.635 67.8391 127.987L67.6392 128.334ZM76.2331 128.334C76.9665 127.91 77.4901 127.397 77.7871 126.837L77.4342 126.65C77.1808 127.127 76.7195 127.591 76.0332 127.987L76.2331 128.334ZM77.6316 126.543H77.6108V126.943H77.6316V126.543ZM81.3052 116.88L77.4458 126.67L77.8175 126.817L81.6769 117.027L81.3052 116.88ZM81.4823 117.154H81.4911V116.754H81.4823V117.154ZM81.6721 117.016C82.2813 115.134 81.3044 113.164 78.9035 111.776L78.7036 112.123C81.0119 113.457 81.8208 115.258 81.292 116.892L81.6721 117.016ZM78.9035 111.776C76.9697 110.659 74.4476 110.106 71.9364 110.106C69.4251 110.106 66.903 110.659 64.9692 111.776L65.1691 112.123C67.0277 111.049 69.4766 110.506 71.9364 110.506C74.3961 110.506 76.845 111.049 78.7036 112.123L78.9035 111.776ZM64.9692 111.776C62.5683 113.164 61.5914 115.134 62.2006 117.016L62.5807 116.892C62.0519 115.258 62.8609 113.457 65.1691 112.123L64.9692 111.776Z"
            fill="#091A23" />
        <path fill-rule="evenodd" clip-rule="evenodd"
            d="M70.1377 129.004C71.0146 128.844 71.84 128.562 72.5359 128.16C73.2457 127.75 73.7386 127.262 74.0135 126.743H74.0343L77.8938 116.954H77.885C78.4538 115.196 77.5613 113.31 75.2066 111.95C73.7697 111.12 71.9947 110.604 70.1377 110.403C73.1826 110.073 76.4477 110.588 78.8039 111.95C81.1585 113.31 82.051 115.196 81.4823 116.954H81.4911L77.6316 126.743H77.6108C77.3358 127.262 76.843 127.75 76.1331 128.16C74.5108 129.098 72.1833 129.379 70.1377 129.004Z"
            fill="#091A23" />
        <path
            d="M70.1375 129.004L70.1016 128.808V129.201L70.1375 129.004ZM74.0134 126.743V126.543H73.8931L73.8367 126.65L74.0134 126.743ZM74.0342 126.743V126.943H74.1701L74.22 126.817L74.0342 126.743ZM77.8936 116.954L78.0795 117.027L78.1874 116.754H77.8936V116.954ZM77.8848 116.954L77.6946 116.892L77.6099 117.154H77.8848V116.954ZM70.1375 110.403L70.116 110.204V110.602L70.1375 110.403ZM81.4821 116.954L81.2919 116.892L81.2071 117.154H81.4821V116.954ZM81.4909 116.954L81.6768 117.027L81.7847 116.754H81.4909V116.954ZM77.6314 126.743V126.943H77.7673L77.8173 126.817L77.6314 126.743ZM77.6106 126.743V126.543H77.4903L77.434 126.65L77.6106 126.743ZM70.1735 129.201C71.0684 129.037 71.9166 128.749 72.6356 128.334L72.4358 127.987C71.7635 128.376 70.9609 128.65 70.1016 128.808L70.1735 129.201ZM72.6356 128.334C73.3691 127.91 73.8931 127.397 74.1897 126.837L73.8367 126.65C73.5837 127.127 73.1221 127.591 72.4358 127.987L72.6356 128.334ZM74.0134 126.943H74.0342V126.543H74.0134V126.943ZM74.22 126.817L78.0795 117.027L77.7078 116.88L73.8483 126.67L74.22 126.817ZM77.8936 116.754H77.8848V117.154H77.8936V116.754ZM78.0751 117.016C78.6838 115.134 77.707 113.164 75.3064 111.776L75.1066 112.123C77.4148 113.457 78.2238 115.258 77.6946 116.892L78.0751 117.016ZM75.3064 111.776C73.8403 110.93 72.0369 110.407 70.1591 110.204L70.116 110.602C71.9522 110.8 73.6988 111.31 75.1066 112.123L75.3064 111.776ZM78.9037 111.776C76.5023 110.389 73.1924 109.871 70.116 110.204L70.1591 110.602C73.1728 110.275 76.3928 110.788 78.7038 112.123L78.9037 111.776ZM81.6724 117.016C82.2811 115.134 81.3042 113.164 78.9037 111.776L78.7038 112.123C81.0121 113.457 81.8211 115.258 81.2919 116.892L81.6724 117.016ZM81.4909 116.754H81.4821V117.154H81.4909V116.754ZM77.8173 126.817L81.6768 117.027L81.305 116.88L77.4456 126.67L77.8173 126.817ZM77.6106 126.943H77.6314V126.543H77.6106V126.943ZM76.2329 128.334C76.9663 127.91 77.4903 127.397 77.7869 126.837L77.434 126.65C77.181 127.127 76.7193 127.591 76.0331 127.987L76.2329 128.334ZM70.1016 129.201C72.1828 129.582 74.561 129.3 76.2329 128.334L76.0331 127.987C74.4606 128.896 72.1832 129.176 70.1735 128.808L70.1016 129.201Z"
            fill="#091A23" />
        <path
            d="M83.6313 120.94C86.8521 119.079 88.4169 116.668 88.4169 114.298C88.4169 111.928 86.8521 109.517 83.6313 107.656C80.4118 105.796 76.1794 104.86 71.9362 104.86C67.6931 104.86 63.4611 105.796 60.2415 107.656C57.0208 109.517 55.4556 111.928 55.4556 114.298C55.4556 116.668 57.0208 119.079 60.2415 120.94C63.4611 122.8 67.6931 123.736 71.9362 123.736C76.1794 123.736 80.4118 122.8 83.6313 120.94Z"
            fill="#8A99A0" stroke="#091A23" />
        <path fill-rule="evenodd" clip-rule="evenodd"
            d="M80.1342 107.483C86.6484 111.247 86.6484 117.349 80.1342 121.113C77.3355 122.73 73.7894 123.652 70.1382 123.88C74.9845 124.182 80.0163 123.26 83.7314 121.113C90.2457 117.349 90.2457 111.247 83.7314 107.483C80.0163 105.336 74.9845 104.414 70.1382 104.716C73.7894 104.944 77.3355 105.866 80.1342 107.483Z"
            fill="#091A23" />
        <mask id="mask0_672_4113" style="mask-type:luminance" maskUnits="userSpaceOnUse" x="70"
            y="104" width="19" height="20">
            <path fill-rule="evenodd" clip-rule="evenodd"
                d="M80.1342 107.483C86.6484 111.247 86.6484 117.349 80.1342 121.113C77.3355 122.73 73.7894 123.652 70.1382 123.88C74.9845 124.182 80.0163 123.26 83.7314 121.113C90.2457 117.349 90.2457 111.247 83.7314 107.483C80.0163 105.336 74.9845 104.414 70.1382 104.716C73.7894 104.944 77.3355 105.866 80.1342 107.483Z"
                fill="white" />
        </mask>
        <g mask="url(#mask0_672_4113)">
            <path
                d="M70.1381 123.88L70.1133 123.481V124.279L70.1381 123.88ZM70.1381 104.716L70.1133 104.317V105.115L70.1381 104.716ZM80.3339 121.459C83.6638 119.535 85.4196 116.958 85.4196 114.298C85.4196 111.638 83.6638 109.06 80.3339 107.136L79.9342 107.83C83.1186 109.669 84.6203 112.025 84.6203 114.298C84.6203 116.571 83.1186 118.927 79.9342 120.766L80.3339 121.459ZM70.1628 124.279C73.86 124.049 77.4697 123.114 80.3339 121.459L79.9342 120.766C77.2011 122.346 73.7185 123.256 70.1133 123.481L70.1628 124.279ZM70.1133 124.279C75.0176 124.585 80.1321 123.654 83.9312 121.459L83.5315 120.766C79.9006 122.864 74.9516 123.779 70.1628 123.481L70.1133 124.279ZM83.9312 121.459C87.261 119.535 89.0169 116.958 89.0169 114.298C89.0169 111.638 87.261 109.06 83.9312 107.136L83.5315 107.83C86.7159 109.669 88.2175 112.025 88.2175 114.298C88.2175 116.571 86.7159 118.927 83.5315 120.766L83.9312 121.459ZM83.9312 107.136C80.1321 104.941 75.0176 104.011 70.1133 104.317L70.1628 105.115C74.9516 104.817 79.9006 105.731 83.5315 107.83L83.9312 107.136ZM80.3339 107.136C77.4697 105.482 73.86 104.547 70.1628 104.317L70.1133 105.115C73.7185 105.34 77.2011 106.25 79.9342 107.83L80.3339 107.136Z"
                fill="#091A23" />
        </g>
        <path
            d="M83.6313 113.727C86.8521 111.866 88.4169 109.455 88.4169 107.085C88.4169 104.715 86.8521 102.304 83.6313 100.443C80.4118 98.5828 76.1794 97.6472 71.9362 97.6472C67.6931 97.6472 63.4611 98.5828 60.2415 100.443C57.0208 102.304 55.4556 104.715 55.4556 107.085C55.4556 109.455 57.0208 111.866 60.2415 113.727C63.4611 115.587 67.6931 116.523 71.9362 116.523C76.1794 116.523 80.4118 115.587 83.6313 113.727Z"
            fill="#8A99A0" stroke="#091A23" />
        <path fill-rule="evenodd" clip-rule="evenodd"
            d="M80.1342 100.27C86.6484 104.034 86.6484 110.137 80.1342 113.9C77.3355 115.518 73.7894 116.44 70.1382 116.668C74.9845 116.969 80.0163 116.047 83.7314 113.9C90.2457 110.137 90.2457 104.034 83.7314 100.27C80.0163 98.124 74.9845 97.2016 70.1382 97.5036C73.7894 97.7308 77.3355 98.6532 80.1342 100.27Z"
            fill="#091A23" />
        <mask id="mask1_672_4113" style="mask-type:luminance" maskUnits="userSpaceOnUse" x="70"
            y="97" width="19" height="20">
            <path fill-rule="evenodd" clip-rule="evenodd"
                d="M80.1342 100.27C86.6484 104.034 86.6484 110.137 80.1342 113.9C77.3355 115.518 73.7894 116.44 70.1382 116.668C74.9845 116.969 80.0163 116.047 83.7314 113.9C90.2457 110.137 90.2457 104.034 83.7314 100.27C80.0163 98.124 74.9845 97.2016 70.1382 97.5036C73.7894 97.7308 77.3355 98.6532 80.1342 100.27Z"
                fill="white" />
        </mask>
        <g mask="url(#mask1_672_4113)">
            <path
                d="M70.1381 116.668L70.1133 116.268V117.067L70.1381 116.668ZM70.1381 97.5036L70.1133 97.1044V97.9028L70.1381 97.5036ZM80.3339 114.247C83.6638 112.323 85.4196 109.745 85.4196 107.086C85.4196 104.426 83.6638 101.848 80.3339 99.924L79.9342 100.617C83.1186 102.457 84.6203 104.812 84.6203 107.086C84.6203 109.359 83.1186 111.714 79.9342 113.554L80.3339 114.247ZM70.1628 117.067C73.86 116.836 77.4697 115.902 80.3339 114.247L79.9342 113.554C77.2011 115.133 73.7185 116.044 70.1133 116.268L70.1628 117.067ZM70.1133 117.067C75.0176 117.372 80.1321 116.442 83.9312 114.247L83.5315 113.554C79.9006 115.652 74.9516 116.566 70.1628 116.268L70.1133 117.067ZM83.9312 114.247C87.261 112.323 89.0169 109.745 89.0169 107.086C89.0169 104.426 87.261 101.848 83.9312 99.924L83.5315 100.617C86.7159 102.457 88.2175 104.812 88.2175 107.086C88.2175 109.359 86.7159 111.714 83.5315 113.554L83.9312 114.247ZM83.9312 99.924C80.1321 97.7288 75.0176 96.7988 70.1133 97.1044L70.1628 97.9028C74.9516 97.6044 79.9006 98.5188 83.5315 100.617L83.9312 99.924ZM80.3339 99.924C77.4697 98.2692 73.86 97.3348 70.1628 97.1044L70.1133 97.9028C73.7185 98.1272 77.2011 99.0376 79.9342 100.617L80.3339 99.924Z"
                fill="#091A23" />
        </g>
        <path
            d="M83.6313 107.31C86.8521 105.449 88.4169 103.038 88.4169 100.668C88.4169 98.2984 86.8521 95.8876 83.6313 94.0268C80.4118 92.1664 76.1794 91.2308 71.9362 91.2308C67.6931 91.2308 63.4611 92.1664 60.2415 94.0268C57.0208 95.8876 55.4556 98.2984 55.4556 100.668C55.4556 103.038 57.0208 105.449 60.2415 107.31C63.4611 109.17 67.6931 110.106 71.9362 110.106C76.1794 110.106 80.4118 109.17 83.6313 107.31Z"
            fill="#8A99A0" stroke="#091A23" />
        <path fill-rule="evenodd" clip-rule="evenodd"
            d="M80.1342 93.8532C86.6484 97.6172 86.6484 103.72 80.1342 107.483C77.3355 109.1 73.7894 110.023 70.1382 110.25C74.9845 110.552 80.0163 109.63 83.7314 107.483C90.2457 103.72 90.2457 97.6172 83.7314 93.8532C80.0163 91.7068 74.9845 90.7844 70.1382 91.0864C73.7894 91.314 77.3355 92.236 80.1342 93.8532Z"
            fill="#091A23" />
        <mask id="mask2_672_4113" style="mask-type:luminance" maskUnits="userSpaceOnUse" x="70"
            y="91" width="19" height="20">
            <path fill-rule="evenodd" clip-rule="evenodd"
                d="M80.1342 93.8532C86.6484 97.6172 86.6484 103.72 80.1342 107.483C77.3355 109.1 73.7894 110.023 70.1382 110.25C74.9845 110.552 80.0163 109.63 83.7314 107.483C90.2457 103.72 90.2457 97.6172 83.7314 93.8532C80.0163 91.7068 74.9845 90.7844 70.1382 91.0864C73.7894 91.314 77.3355 92.236 80.1342 93.8532Z"
                fill="white" />
        </mask>
        <g mask="url(#mask2_672_4113)">
            <path
                d="M70.1381 110.25L70.1133 109.851V110.65L70.1381 110.25ZM70.1381 91.0864L70.1133 90.6872V91.4856L70.1381 91.0864ZM80.3339 107.83C83.6638 105.906 85.4196 103.328 85.4196 100.668C85.4196 98.0084 83.6638 95.4308 80.3339 93.5068L79.9342 94.1996C83.1186 96.0396 84.6203 98.3952 84.6203 100.668C84.6203 102.942 83.1186 105.297 79.9342 107.137L80.3339 107.83ZM70.1628 110.65C73.86 110.419 77.4697 109.485 80.3339 107.83L79.9342 107.137C77.2011 108.716 73.7185 109.626 70.1133 109.851L70.1628 110.65ZM70.1133 110.65C75.0176 110.955 80.1321 110.025 83.9312 107.83L83.5315 107.137C79.9006 109.235 74.9516 110.149 70.1628 109.851L70.1133 110.65ZM83.9312 107.83C87.261 105.906 89.0169 103.328 89.0169 100.668C89.0169 98.0084 87.261 95.4308 83.9312 93.5068L83.5315 94.1996C86.7159 96.0396 88.2175 98.3952 88.2175 100.668C88.2175 102.942 86.7159 105.297 83.5315 107.137L83.9312 107.83ZM83.9312 93.5068C80.1321 91.3116 75.0176 90.3816 70.1133 90.6872L70.1628 91.4856C74.9516 91.1872 79.9006 92.1016 83.5315 94.1996L83.9312 93.5068ZM80.3339 93.5068C77.4697 91.852 73.86 90.9176 70.1628 90.6872L70.1133 91.4856C73.7185 91.71 77.2011 92.6204 79.9342 94.1996L80.3339 93.5068Z"
                fill="#091A23" />
        </g>
        <path d="M16.5093 68.1552L26.7915 61.9816" stroke="#DCFF1E" />
        <path d="M109.573 10.9172L104.602 21.8376" stroke="#DCFF1E" />
        <path d="M16.5088 43.7959L26.7911 49.9695" stroke="#DCFF1E" />
        <path d="M123.375 30.9816L111.408 31.7318" stroke="#DCFF1E" />
        <path fill-rule="evenodd" clip-rule="evenodd"
            d="M85.2626 95.2744C102.179 89.7596 114.405 73.8472 114.405 55.0772C114.405 31.734 95.4956 12.81 72.1697 12.81C48.8443 12.81 29.9351 31.734 29.9351 55.0772C29.9351 74.0856 42.4727 90.1632 59.7236 95.4792V97.9316H59.7288C59.7788 99.7808 61.025 101.621 63.4668 103.032C68.453 105.913 76.5372 105.913 81.5234 103.032C83.9656 101.621 85.2114 99.7808 85.2618 97.9316H85.2626V97.8936C85.2634 97.8416 85.2634 97.7896 85.2626 97.7376V95.2744Z"
            fill="#F1FFA5" />
        <mask id="mask3_672_4113" style="mask-type:luminance" maskUnits="userSpaceOnUse" x="29"
            y="12" width="86" height="94">
            <path fill-rule="evenodd" clip-rule="evenodd"
                d="M85.2626 95.2744C102.179 89.7596 114.405 73.8472 114.405 55.0772C114.405 31.734 95.4956 12.81 72.1697 12.81C48.8443 12.81 29.9351 31.734 29.9351 55.0772C29.9351 74.0856 42.4727 90.1632 59.7236 95.4792V97.9316H59.7288C59.7788 99.7808 61.025 101.621 63.4668 103.032C68.453 105.913 76.5372 105.913 81.5234 103.032C83.9656 101.621 85.2114 99.7808 85.2618 97.9316H85.2626V97.8936C85.2634 97.8416 85.2634 97.7896 85.2626 97.7376V95.2744Z"
                fill="white" />
        </mask>
        <g mask="url(#mask3_672_4113)">
            <path
                d="M85.2624 95.2744L85.1385 94.894L84.8627 94.984V95.2744H85.2624ZM59.7234 95.4792H60.1231V95.184L59.8409 95.0972L59.7234 95.4792ZM59.7234 97.9316H59.3237V98.3316H59.7234V97.9316ZM59.7286 97.9316L60.1283 97.9208L60.1175 97.5316H59.7286V97.9316ZM85.2616 97.9316V97.5316H84.8723L84.8619 97.9208L85.2616 97.9316ZM85.2624 97.9316V98.3316H85.6621V97.9316H85.2624ZM85.2624 97.8936L84.8627 97.886V97.8896V97.8936H85.2624ZM85.2624 97.7376H84.8627V97.7412V97.7448L85.2624 97.7376ZM114.005 55.0772C114.005 73.6692 101.896 89.4316 85.1385 94.894L85.3863 95.6548C102.462 90.088 114.804 74.0256 114.804 55.0772H114.005ZM72.1695 13.21C95.2748 13.21 114.005 31.9548 114.005 55.0772H114.804C114.804 31.5128 95.716 12.41 72.1695 12.41V13.21ZM30.3345 55.0772C30.3345 31.9548 49.0647 13.21 72.1695 13.21V12.41C48.623 12.41 29.5352 31.5128 29.5352 55.0772H30.3345ZM59.8409 95.0972C42.7531 89.8308 30.3345 73.9048 30.3345 55.0772H29.5352C29.5352 74.266 42.1919 90.4952 59.6055 95.8616L59.8409 95.0972ZM60.1231 97.9316V95.4792H59.3237V97.9316H60.1231ZM59.7286 97.5316H59.7234V98.3316H59.7286V97.5316ZM63.6664 102.686C61.2958 101.316 60.1731 99.5824 60.1283 97.9208L59.3289 97.9424C59.3841 99.9792 60.7534 101.926 63.2667 103.378L63.6664 102.686ZM81.3234 102.686C78.9056 104.083 75.7112 104.793 72.4949 104.793C69.2789 104.793 66.0846 104.083 63.6664 102.686L63.2667 103.378C65.8352 104.862 69.1758 105.593 72.4949 105.593C75.8144 105.593 79.155 104.862 81.7231 103.378L81.3234 102.686ZM84.8619 97.9208C84.8167 99.5824 83.694 101.316 81.3234 102.686L81.7231 103.378C84.2368 101.926 85.6057 99.9792 85.6609 97.9424L84.8619 97.9208ZM85.2624 97.5316H85.2616V98.3316H85.2624V97.5316ZM84.8627 97.8936V97.9316H85.6621V97.8936H84.8627ZM84.8627 97.7448C84.8635 97.792 84.8635 97.8392 84.8627 97.886L85.6621 97.9008C85.6629 97.844 85.6629 97.7872 85.6621 97.7304L84.8627 97.7448ZM84.8627 95.2744V97.7376H85.6621V95.2744H84.8627Z"
                fill="#091A23" />
        </g>
        <path
            d="M66.4132 87.9698C85.5976 87.9698 101.15 72.4059 101.15 53.2068C101.15 34.0078 85.5976 18.4438 66.4132 18.4438C47.2288 18.4438 31.6768 34.0078 31.6768 53.2068C31.6768 72.4059 47.2288 87.9698 66.4132 87.9698Z"
            fill="#DCFF1E" fill-opacity="0.66" />
        <path
            d="M77.7804 93.3993C96.9648 93.3993 112.517 77.8354 112.517 58.6364C112.517 39.4373 96.9648 23.8734 77.7804 23.8734C58.596 23.8734 43.0439 39.4373 43.0439 58.6364C43.0439 77.8354 58.596 93.3993 77.7804 93.3993Z"
            fill="#DCFF1E" fill-opacity="0.39" />
        <path fill-rule="evenodd" clip-rule="evenodd"
            d="M85.3081 95.2256C85.2553 95.2432 85.2025 95.2604 85.1494 95.2776V97.7432C85.1506 97.7952 85.1506 97.8472 85.1494 97.8988V97.9348H85.1486C85.1366 98.3872 85.0531 98.8388 84.898 99.284C84.2737 97.4664 82.742 95.7316 80.3039 94.3228C77.4872 92.6956 73.9191 91.7672 70.2451 91.5384C75.123 91.2344 80.1872 92.1624 83.9263 94.3228C84.4247 94.6108 84.8856 94.9124 85.3081 95.2256Z"
            fill="#091A23" fill-opacity="0.25" />
        <path
            d="M57.7446 54.5256L63.7493 38.3836C63.9175 37.9312 64.6206 38.4704 64.6282 39.058L65.0487 70.6268C65.0571 71.26 65.8413 71.7936 65.9452 71.2368L71.2939 42.606C71.3886 42.098 72.0849 42.4988 72.1816 43.1172L77.9581 80.008C78.0648 80.6892 78.8542 81.0556 78.8542 80.4236V47.384C78.8542 46.7972 79.562 47.0644 79.7331 47.7156L85.8153 70.8912"
            stroke="#091A23" stroke-linecap="round" />
        <path
            d="M86.0302 75.5125C87.081 76.1197 87.9329 75.6275 87.9329 74.4131C87.9329 73.1988 87.081 71.7222 86.0302 71.115C84.9793 70.5078 84.1274 71 84.1274 72.2144C84.1274 73.4287 84.9793 74.9053 86.0302 75.5125Z"
            stroke="#091A23" />
        <path
            d="M57.5526 59.0601C58.6035 59.6673 59.4553 59.1751 59.4553 57.9607C59.4553 56.7464 58.6035 55.2698 57.5526 54.6626C56.5018 54.0554 55.6499 54.5476 55.6499 55.762C55.6499 56.9763 56.5018 58.453 57.5526 59.0601Z"
            stroke="#091A23" />
        <path
            d="M57.8217 59.2564C57.7813 59.1332 57.6786 59.0304 57.5919 59.0268C57.5051 59.0236 57.4676 59.1208 57.5079 59.244L57.8217 59.2564ZM57.5079 59.244L69.2186 95.062L69.5324 95.0744L57.8217 59.2564L57.5079 59.244Z"
            fill="#091A23" />
        <path
            d="M85.7004 75.4956C85.7408 75.4192 85.8439 75.4356 85.9306 75.5324C86.017 75.6296 86.0541 75.77 86.0138 75.8468L85.7004 75.4956ZM86.0138 75.8468L74.2655 97.9788L73.9521 97.6276L85.7004 75.4956L86.0138 75.8468Z"
            fill="#091A23" />
    </g>
    <defs>
        <clipPath id="clip0_672_4113">
            <rect width="140" height="140" fill="white" />
        </clipPath>
    </defs>
</svg>
