<svg width="32" height="32" viewBox="0 0 32 32" fill="none" xmlns="http://www.w3.org/2000/svg">
<path fill-rule="evenodd" clip-rule="evenodd" d="M10.1502 8C10.4347 8 10.6974 8.15122 10.8408 8.39687L12.7096 11.6H19.408L18.0096 9.20312C17.8652 8.9557 17.8638 8.64995 18.0064 8.40156C18.1491 8.15321 18.4138 8 18.7002 8H23.2002C23.8897 8.00005 24.5517 8.27339 25.0393 8.76094C25.5268 9.24852 25.8002 9.91048 25.8002 10.6C25.8002 11.0418 25.4419 11.3999 25.0002 11.4C24.5584 11.4 24.2002 11.0418 24.2002 10.6C24.2002 10.3348 24.0955 10.0797 23.908 9.89219C23.7672 9.75139 23.588 9.65709 23.3955 9.61875L23.2002 9.6H20.0924L23.0502 14.6719C23.6539 14.4328 24.3114 14.3 25.0002 14.3C27.9273 14.3 30.3002 16.6729 30.3002 19.6C30.3002 22.5271 27.9273 24.9 25.0002 24.9C22.0731 24.9 19.7002 22.5271 19.7002 19.6C19.7002 17.9351 20.4682 16.4498 21.6689 15.4781L20.3408 13.2H13.6424L17.1408 19.1969C17.3634 19.5785 17.2348 20.0679 16.8533 20.2906C16.5195 20.4853 16.103 20.4114 15.8549 20.1344L15.7596 20.0031L12.1752 13.8594L10.733 15.8375C11.7009 16.7978 12.3002 18.1289 12.3002 19.6C12.3002 22.5271 9.92731 24.9 7.0002 24.9C4.07309 24.9 1.7002 22.5271 1.7002 19.6C1.7002 16.6729 4.07309 14.3 7.0002 14.3C7.88026 14.3 8.71039 14.5142 9.44082 14.8937L11.2955 12.3516L9.69082 9.6H7.0002C6.55837 9.6 6.2002 9.24183 6.2002 8.8C6.2002 8.35817 6.55837 8 7.0002 8H10.1502ZM7.0002 15.9C4.95674 15.9 3.3002 17.5565 3.3002 19.6C3.3002 21.6435 4.95674 23.3 7.0002 23.3C9.04365 23.3 10.7002 21.6435 10.7002 19.6C10.7002 18.6619 10.3475 17.8084 9.77207 17.1562L7.64707 20.0719C7.38667 20.4286 6.88519 20.5071 6.52832 20.2469C6.17179 19.9865 6.09332 19.485 6.35332 19.1281L8.48145 16.2094C8.0278 16.0109 7.52703 15.9 7.0002 15.9ZM25.0002 15.9C24.6063 15.9 24.2266 15.961 23.8705 16.075L25.6908 19.1969C25.9133 19.5784 25.7847 20.0679 25.4033 20.2906C25.0696 20.4853 24.653 20.4113 24.4049 20.1344L24.3096 20.0031L22.4908 16.8859C21.7601 17.5618 21.3002 18.5262 21.3002 19.6C21.3002 21.6435 22.9567 23.3 25.0002 23.3C27.0436 23.3 28.7002 21.6435 28.7002 19.6C28.7002 17.5565 27.0436 15.9 25.0002 15.9Z" fill="black"/>
</svg>
