<svg width="25" height="8" viewBox="0 0 25 8" fill="none" xmlns="http://www.w3.org/2000/svg">
<path d="M24.8536 4.35355C25.0488 4.15829 25.0488 3.84171 24.8536 3.64645L21.6716 0.464466C21.4763 0.269204 21.1597 0.269204 20.9645 0.464466C20.7692 0.659728 20.7692 0.976311 20.9645 1.17157L23.7929 4L20.9645 6.82843C20.7692 7.02369 20.7692 7.34027 20.9645 7.53553C21.1597 7.7308 21.4763 7.7308 21.6716 7.53553L24.8536 4.35355ZM1.5 4.5C1.77614 4.5 2 4.27614 2 4C2 3.72386 1.77614 3.5 1.5 3.5V4V4.5ZM3.5 3.5C3.22386 3.5 3 3.72386 3 4C3 4.27614 3.22386 4.5 3.5 4.5V4V3.5ZM5.5 4.5C5.77614 4.5 6 4.27614 6 4C6 3.72386 5.77614 3.5 5.5 3.5V4V4.5ZM7.5 3.5C7.22386 3.5 7 3.72386 7 4C7 4.27614 7.22386 4.5 7.5 4.5V4V3.5ZM9.5 4.5C9.77614 4.5 10 4.27614 10 4C10 3.72386 9.77614 3.5 9.5 3.5V4V4.5ZM11.5 3.5C11.2239 3.5 11 3.72386 11 4C11 4.27614 11.2239 4.5 11.5 4.5V4V3.5ZM13.5 4.5C13.7761 4.5 14 4.27614 14 4C14 3.72386 13.7761 3.5 13.5 3.5V4V4.5ZM15.5 3.5C15.2239 3.5 15 3.72386 15 4C15 4.27614 15.2239 4.5 15.5 4.5V4V3.5ZM17.5 4.5C17.7761 4.5 18 4.27614 18 4C18 3.72386 17.7761 3.5 17.5 3.5V4V4.5ZM19.5 3.5C19.2239 3.5 19 3.72386 19 4C19 4.27614 19.2239 4.5 19.5 4.5V4V3.5ZM21.5 4.5C21.7761 4.5 22 4.27614 22 4C22 3.72386 21.7761 3.5 21.5 3.5V4V4.5ZM23.5 3.5C23.2239 3.5 23 3.72386 23 4C23 4.27614 23.2239 4.5 23.5 4.5V4V3.5ZM0.5 4V4.5H1.5V4V3.5H0.5V4ZM3.5 4V4.5H5.5V4V3.5H3.5V4ZM7.5 4V4.5H9.5V4V3.5H7.5V4ZM11.5 4V4.5H13.5V4V3.5H11.5V4ZM15.5 4V4.5H17.5V4V3.5H15.5V4ZM19.5 4V4.5H21.5V4V3.5H19.5V4ZM23.5 4V4.5H24.5V4V3.5H23.5V4ZM24.8536 4.35355C25.0488 4.15829 25.0488 3.84171 24.8536 3.64645L21.6716 0.464466C21.4763 0.269204 21.1597 0.269204 20.9645 0.464466C20.7692 0.659728 20.7692 0.976311 20.9645 1.17157L23.7929 4L20.9645 6.82843C20.7692 7.02369 20.7692 7.34027 20.9645 7.53553C21.1597 7.7308 21.4763 7.7308 21.6716 7.53553L24.8536 4.35355ZM1.5 4.5C1.77614 4.5 2 4.27614 2 4C2 3.72386 1.77614 3.5 1.5 3.5V4V4.5ZM3.5 3.5C3.22386 3.5 3 3.72386 3 4C3 4.27614 3.22386 4.5 3.5 4.5V4V3.5ZM5.5 4.5C5.77614 4.5 6 4.27614 6 4C6 3.72386 5.77614 3.5 5.5 3.5V4V4.5ZM7.5 3.5C7.22386 3.5 7 3.72386 7 4C7 4.27614 7.22386 4.5 7.5 4.5V4V3.5ZM9.5 4.5C9.77614 4.5 10 4.27614 10 4C10 3.72386 9.77614 3.5 9.5 3.5V4V4.5ZM11.5 3.5C11.2239 3.5 11 3.72386 11 4C11 4.27614 11.2239 4.5 11.5 4.5V4V3.5ZM13.5 4.5C13.7761 4.5 14 4.27614 14 4C14 3.72386 13.7761 3.5 13.5 3.5V4V4.5ZM15.5 3.5C15.2239 3.5 15 3.72386 15 4C15 4.27614 15.2239 4.5 15.5 4.5V4V3.5ZM17.5 4.5C17.7761 4.5 18 4.27614 18 4C18 3.72386 17.7761 3.5 17.5 3.5V4V4.5ZM19.5 3.5C19.2239 3.5 19 3.72386 19 4C19 4.27614 19.2239 4.5 19.5 4.5V4V3.5ZM21.5 4.5C21.7761 4.5 22 4.27614 22 4C22 3.72386 21.7761 3.5 21.5 3.5V4V4.5ZM23.5 3.5C23.2239 3.5 23 3.72386 23 4C23 4.27614 23.2239 4.5 23.5 4.5V4V3.5ZM0.5 4V4.5H1.5V4V3.5H0.5V4ZM3.5 4V4.5H5.5V4V3.5H3.5V4ZM7.5 4V4.5H9.5V4V3.5H7.5V4ZM11.5 4V4.5H13.5V4V3.5H11.5V4ZM15.5 4V4.5H17.5V4V3.5H15.5V4ZM19.5 4V4.5H21.5V4V3.5H19.5V4ZM23.5 4V4.5H24.5V4V3.5H23.5V4Z" fill="#091A23"/>
</svg>
