<svg width="32" height="32" viewBox="0 0 32 32" fill="none" xmlns="http://www.w3.org/2000/svg">
<path fill-rule="evenodd" clip-rule="evenodd" d="M16.0043 4.25195C17.0278 4.25202 18.0212 4.60093 18.8197 5.24121C19.3884 5.69731 19.8326 6.28279 20.1224 6.94238C20.5641 6.80926 21.0259 6.74386 21.4906 6.75098C22.2485 6.76268 22.9913 6.96643 23.6498 7.3418C24.3083 7.71726 24.862 8.25311 25.2582 8.89941C25.4909 9.2792 25.6635 9.69036 25.7748 10.1182L25.7953 10.1133C26.051 10.0404 26.3265 10.1075 26.5189 10.291C26.7112 10.4746 26.7917 10.747 26.7308 11.0059L23.5482 24.5312C23.4664 24.8783 23.27 25.1877 22.9906 25.4092C22.7109 25.6307 22.364 25.7519 22.0072 25.752H9.99352C9.63667 25.752 9.28992 25.6307 9.01013 25.4092C8.73061 25.1877 8.53332 24.8784 8.45153 24.5312L5.26892 11.0059C5.20798 10.7469 5.2893 10.4746 5.48181 10.291C5.67431 10.1075 5.94971 10.0402 6.20544 10.1133L6.22302 10.1182C6.33418 9.68852 6.5079 9.27577 6.74157 8.89453C7.13843 8.24713 7.69292 7.71052 8.3529 7.33496C9.01294 6.9594 9.75763 6.75751 10.517 6.74707C10.982 6.74069 11.4434 6.80644 11.8851 6.94043C12.175 6.2814 12.6205 5.69698 13.1888 5.24121C13.9874 4.60095 14.9807 4.25199 16.0043 4.25195ZM9.91247 24.1875L9.92321 24.2129C9.92814 24.2206 9.93451 24.2277 9.94177 24.2334C9.95645 24.2449 9.97487 24.252 9.99352 24.252H12.6439L11.1547 13.0859L7.02184 11.9053L9.91247 24.1875ZM15.972 11.6543L12.6527 12.9805L14.1566 24.252H17.8441L19.347 12.9805L16.0336 11.6543C16.014 11.6468 15.9916 11.6465 15.972 11.6543ZM20.8451 13.0859L19.3568 24.252H22.0072C22.0259 24.2519 22.0443 24.245 22.059 24.2334C22.0735 24.2218 22.0839 24.2056 22.0883 24.1875L24.9779 11.9053L20.8451 13.0859ZM16.0043 5.75195C15.322 5.75199 14.6596 5.98443 14.1273 6.41113C13.5949 6.83807 13.2238 7.43446 13.0756 8.10059C13.0246 8.32927 12.8695 8.52127 12.6566 8.61914C12.4438 8.71689 12.1973 8.70967 11.9906 8.59961C11.5439 8.36142 11.0437 8.24013 10.5375 8.24707C10.0314 8.25405 9.53503 8.3884 9.09509 8.63867C8.6551 8.88905 8.28544 9.24711 8.02087 9.67871C7.85857 9.9435 7.73911 10.2309 7.6654 10.5303L11.7933 11.709L15.4154 10.2617C15.7455 10.1298 16.1092 10.113 16.4476 10.2119L16.5912 10.2617L20.2064 11.709L24.3324 10.5303C24.2588 10.2324 24.1404 9.94613 23.9789 9.68262C23.7147 9.25184 23.3456 8.89478 22.9066 8.64453C22.4676 8.39433 21.9724 8.25874 21.4672 8.25098C20.9619 8.24325 20.4625 8.36299 20.016 8.59961C19.8093 8.70912 19.5634 8.71607 19.3509 8.61816C19.1386 8.52016 18.9839 8.32886 18.933 8.10059C18.7847 7.43444 18.4136 6.83807 17.8812 6.41113C17.3489 5.98432 16.6866 5.75202 16.0043 5.75195Z" fill="black"/>
</svg>
