<svg width="20" height="20" viewBox="0 0 20 20" fill="currentColor" xmlns="http://www.w3.org/2000/svg">
    <path fill-rule="evenodd" clip-rule="evenodd"
          d="M9.8111 13.5375C9.95211 13.4801 10.1133 13.4892 10.2476 13.5658L13.7476 15.5658C13.9034 15.6549 13.9996 15.821 13.9996 16.0004C13.9995 16.1797 13.9033 16.346 13.7476 16.435L10.2476 18.435C10.0941 18.5224 9.90502 18.5226 9.75153 18.435L6.25153 16.435C6.0959 16.346 5.99969 16.1797 5.99958 16.0004C5.99958 15.8211 6.09596 15.6549 6.25153 15.5658L9.75153 13.5658L9.8111 13.5375ZM7.50739 16.0004L9.99958 17.4233L12.4908 16.0004L9.99958 14.5766L7.50739 16.0004Z"/>
    <path d="M9.88532 2.51408C9.99791 2.48764 10.1176 2.50039 10.2232 2.55314L12.2232 3.55314C12.4702 3.67664 12.5703 3.97706 12.4468 4.22404C12.3232 4.4707 12.0228 4.57108 11.7759 4.44767L10.4996 3.809V9.70939L16.4859 13.1303L16.4996 11.9945C16.5028 11.7197 16.7277 11.499 17.0025 11.5004C17.2775 11.502 17.4996 11.7254 17.4996 12.0004V14.0004C17.4995 14.1674 17.4159 14.3238 17.2769 14.4164L15.7769 15.4164C15.5472 15.5692 15.2367 15.5073 15.0836 15.2778C14.9305 15.0481 14.9928 14.7377 15.2222 14.5844L16.0484 14.0326L9.99958 10.5766L4.00056 14.0404L4.78669 14.5912C5.01255 14.7497 5.06705 15.0614 4.90876 15.2875C4.75019 15.513 4.4384 15.5678 4.21247 15.4096L2.78474 14.4096C2.65648 14.3197 2.57757 14.1745 2.57185 14.018L2.49958 12.018C2.48989 11.7423 2.70635 11.5105 2.982 11.5004C3.25781 11.4907 3.48968 11.707 3.49958 11.9828L3.5406 13.1518L9.49958 9.71135V3.809L8.22321 4.44767C7.97636 4.5708 7.67578 4.47077 7.55232 4.22404C7.4289 3.9772 7.52929 3.67678 7.77595 3.55314L9.77595 2.55314L9.88532 2.51408Z"/>
    <path fill-rule="evenodd" clip-rule="evenodd"
          d="M6.25153 4.56584C6.4062 4.47756 6.5965 4.47846 6.75056 4.56779C6.88537 4.64603 6.97534 4.78194 6.99567 4.934L6.99958 5.00041V8.50041C6.99947 8.67971 6.90332 8.84601 6.74763 8.93498L3.24763 10.935C3.093 11.0231 2.90256 11.0223 2.7486 10.933C2.5946 10.8436 2.4997 10.6785 2.49958 10.5004V7.00041C2.49958 6.82112 2.59597 6.65491 2.75153 6.56584L6.25153 4.56584ZM3.49958 7.29045V9.6381L5.99958 8.20939V5.86174L3.49958 7.29045Z"/>
    <path fill-rule="evenodd" clip-rule="evenodd"
          d="M13.2486 4.56779C13.4026 4.47842 13.593 4.4776 13.7476 4.56584L17.2476 6.56584C17.4034 6.65486 17.4996 6.82098 17.4996 7.00041V10.5004C17.4995 10.6785 17.4046 10.8436 17.2506 10.933C17.0965 11.0222 16.9061 11.0232 16.7515 10.935L13.2515 8.93498C13.0959 8.846 12.9997 8.67968 12.9996 8.50041V5.00041L13.0035 4.934C13.0238 4.78208 13.114 4.64606 13.2486 4.56779ZM13.9996 8.20939L16.4996 9.6381V7.29045L13.9996 5.86174V8.20939Z"/>
</svg>
